<?xml version="1.0" encoding="UTF-8" standalone="no"?>
<!-- Created with Inkscape (http://www.inkscape.org/) -->

<svg
   width="172.8871mm"
   height="119.4048mm"
   viewBox="0 0 172.8871 119.4048"
   version="1.1"
   id="svg9508"
   sodipodi:docname="conventions.svg"
   inkscape:version="1.2.2 (b0a8486541, 2022-12-01)"
   xmlns:inkscape="http://www.inkscape.org/namespaces/inkscape"
   xmlns:sodipodi="http://sodipodi.sourceforge.net/DTD/sodipodi-0.dtd"
   xmlns="http://www.w3.org/2000/svg"
   xmlns:svg="http://www.w3.org/2000/svg">
  <sodipodi:namedview
     id="namedview9510"
     pagecolor="#ffffff"
     bordercolor="#666666"
     borderopacity="1.0"
     inkscape:showpageshadow="2"
     inkscape:pageopacity="0.0"
     inkscape:pagecheckerboard="0"
     inkscape:deskcolor="#d1d1d1"
     inkscape:document-units="mm"
     showgrid="true"
     inkscape:zoom="1.1893044"
     inkscape:cx="258.97491"
     inkscape:cy="253.50953"
     inkscape:window-width="1900"
     inkscape:window-height="1100"
     inkscape:window-x="8"
     inkscape:window-y="68"
     inkscape:window-maximized="1"
     inkscape:current-layer="layer1"
     showguides="false">
    <inkscape:grid
       type="xygrid"
       id="grid10296"
       originx="-19.451982"
       originy="-36.446994" />
  </sodipodi:namedview>
  <defs
     id="defs9505">
    <marker
       style="overflow:visible"
       id="marker14073"
       refX="0"
       refY="0"
       orient="auto-start-reverse"
       inkscape:stockid="TriangleStart"
       markerWidth="5.3244081"
       markerHeight="6.155385"
       viewBox="0 0 5.3244081 6.1553851"
       inkscape:isstock="true"
       inkscape:collect="always"
       preserveAspectRatio="xMidYMid">
      <path
         transform="scale(0.5)"
         style="fill:context-stroke;fill-rule:evenodd;stroke:context-stroke;stroke-width:1pt"
         d="M 5.77,0 -2.88,5 V -5 Z"
         id="path14071" />
    </marker>
    <marker
       style="overflow:visible"
       id="TriangleStart"
       refX="0"
       refY="0"
       orient="auto-start-reverse"
       inkscape:stockid="TriangleStart"
       markerWidth="5.3244081"
       markerHeight="6.155385"
       viewBox="0 0 5.3244081 6.1553851"
       inkscape:isstock="true"
       inkscape:collect="always"
       preserveAspectRatio="xMidYMid">
      <path
         transform="scale(0.5)"
         style="fill:context-stroke;fill-rule:evenodd;stroke:context-stroke;stroke-width:1pt"
         d="M 5.77,0 -2.88,5 V -5 Z"
         id="path135" />
    </marker>
    <clipPath
       id="clipPath3624">
      <path
         d="M 0,6 H 19 V 21.824219 H 0 Z m 0,0"
         id="path5974" />
    </clipPath>
    <clipPath
       id="clipPath3617">
      <path
         d="M 0,0 H 12 V 15.492188 H 0 Z m 0,0"
         id="path7284" />
    </clipPath>
    <clipPath
       id="clipPath2000">
      <path
         d="m 15,1 h 7 v 14.453125 h -7 z m 0,0"
         id="path5123" />
    </clipPath>
    <clipPath
       id="clipPath1238">
      <path
         d="m 38,1 h 9 v 14.453125 h -9 z m 0,0"
         id="path6400" />
    </clipPath>
    <clipPath
       id="clipPath1663">
      <path
         d="m 62,1 h 9 v 14.453125 h -9 z m 0,0"
         id="path9232" />
    </clipPath>
    <clipPath
       id="clipPath9777">
      <path
         d="M 85,1 H 95 V 15.453125 H 85 Z m 0,0"
         id="path1582" />
    </clipPath>
    <clipPath
       id="clipPath6246">
      <path
         d="m 109,1 h 9 v 14.453125 h -9 z m 0,0"
         id="path6913" />
    </clipPath>
    <clipPath
       id="clipPath7780">
      <path
         d="m 133,1 h 9 v 14.453125 h -9 z m 0,0"
         id="path3878" />
    </clipPath>
    <clipPath
       id="clipPath5792">
      <path
         d="m 157,1 h 9 v 14.453125 h -9 z m 0,0"
         id="path4395" />
    </clipPath>
    <clipPath
       id="clipPath2000-9">
      <path
         d="m 15,1 h 7 v 14.453125 h -7 z m 0,0"
         id="path5123-3" />
    </clipPath>
    <clipPath
       id="clipPath1238-7">
      <path
         d="m 38,1 h 9 v 14.453125 h -9 z m 0,0"
         id="path6400-4" />
    </clipPath>
    <clipPath
       id="clipPath1663-5">
      <path
         d="m 62,1 h 9 v 14.453125 h -9 z m 0,0"
         id="path9232-2" />
    </clipPath>
    <clipPath
       id="clipPath9777-5">
      <path
         d="M 85,1 H 95 V 15.453125 H 85 Z m 0,0"
         id="path1582-4" />
    </clipPath>
    <clipPath
       id="clipPath6246-7">
      <path
         d="m 109,1 h 9 v 14.453125 h -9 z m 0,0"
         id="path6913-4" />
    </clipPath>
    <clipPath
       id="clipPath7780-4">
      <path
         d="m 133,1 h 9 v 14.453125 h -9 z m 0,0"
         id="path3878-3" />
    </clipPath>
    <clipPath
       id="clipPath1303">
      <path
         d="M 0,0 H 12 V 15.492188 H 0 Z m 0,0"
         id="path3265" />
    </clipPath>
    <clipPath
       id="clipPath3686">
      <path
         d="m 13,1 h 7 v 14.492188 h -7 z m 0,0"
         id="path167" />
    </clipPath>
    <clipPath
       id="clipPath5510">
      <path
         d="M 22,0 H 34 V 15.492188 H 22 Z m 0,0"
         id="path3279" />
    </clipPath>
    <clipPath
       id="clipPath9043">
      <path
         d="m 34,1 h 9 v 14.492188 h -9 z m 0,0"
         id="path9316" />
    </clipPath>
    <clipPath
       id="clipPath9920">
      <path
         d="M 44,0 H 56 V 15.492188 H 44 Z m 0,0"
         id="path8528" />
    </clipPath>
    <clipPath
       id="clipPath9031">
      <path
         d="m 56,1 h 9 v 14.492188 h -9 z m 0,0"
         id="path2235" />
    </clipPath>
    <clipPath
       id="clipPath9368">
      <path
         d="M 66,0 H 78 V 15.492188 H 66 Z m 0,0"
         id="path3679" />
    </clipPath>
    <clipPath
       id="clipPath4476">
      <path
         d="M 77,1 H 87 V 15.492188 H 77 Z m 0,0"
         id="path6930" />
    </clipPath>
    <clipPath
       id="clipPath9296">
      <path
         d="m 87,0 h 13 V 15.492188 H 87 Z m 0,0"
         id="path8238" />
    </clipPath>
    <clipPath
       id="clipPath8997">
      <path
         d="m 99,1 h 9 v 14.492188 h -9 z m 0,0"
         id="path8510" />
    </clipPath>
    <clipPath
       id="clipPath1861">
      <path
         d="m 109,0 h 12 v 15.492188 h -12 z m 0,0"
         id="path8774" />
    </clipPath>
    <clipPath
       id="clipPath9900">
      <path
         d="m 121,1 h 9 v 14.492188 h -9 z m 0,0"
         id="path194" />
    </clipPath>
    <marker
       style="overflow:visible"
       id="TriangleStart-5"
       refX="0"
       refY="0"
       orient="auto-start-reverse"
       inkscape:stockid="TriangleStart"
       markerWidth="5.3244081"
       markerHeight="6.155385"
       viewBox="0 0 5.3244081 6.1553851"
       inkscape:isstock="true"
       inkscape:collect="always"
       preserveAspectRatio="xMidYMid">
      <path
         transform="scale(0.5)"
         style="fill:context-stroke;fill-rule:evenodd;stroke:context-stroke;stroke-width:1pt"
         d="M 5.77,0 -2.88,5 V -5 Z"
         id="path135-9" />
    </marker>
  </defs>
  <g
     inkscape:label="Layer 1"
     inkscape:groupmode="layer"
     id="layer1"
     transform="translate(-19.451983,-36.446995)">
    <text
       xml:space="preserve"
       style="font-size:4.23333px;line-height:1.25;font-family:sans-serif;stroke-width:0.264583"
       x="61.094711"
       y="41.235332"
       id="text9638"><tspan
         sodipodi:role="line"
         id="tspan9636"
         style="font-style:normal;font-variant:normal;font-weight:bold;font-stretch:normal;font-family:sans-serif;-inkscape-font-specification:'sans-serif Bold';stroke-width:0.264583"
         x="61.094711"
         y="41.235332">Input data</tspan></text>
    <text
       xml:space="preserve"
       style="font-size:4.23333px;line-height:1.25;font-family:sans-serif;stroke-width:0.264583"
       x="156.28169"
       y="39.664326"
       id="text9642"><tspan
         sodipodi:role="line"
         id="tspan9640"
         style="font-style:normal;font-variant:normal;font-weight:bold;font-stretch:normal;font-family:sans-serif;-inkscape-font-specification:'sans-serif Bold';text-align:center;text-anchor:middle;stroke-width:0.264583"
         x="156.28169"
         y="39.664326">Output data</tspan><tspan
         sodipodi:role="line"
         style="font-size:2.82222px;text-align:center;text-anchor:middle;stroke-width:0.264583"
         x="156.28169"
         y="44.955986"
         id="tspan9747">Also called reference data, or labels</tspan></text>
    <g
       inkscape:label=""
       transform="translate(64.423087,48.644426)"
       id="g9670">
      <g
         id="surface1"
         transform="matrix(0.352778,0,0,0.352778,-0.242535,-0.00211685)">
        <g
           clip-path="url(#clipPath3624)"
           clip-rule="nonzero"
           id="g30">
          <g
             style="fill:#000000;fill-opacity:1"
             id="g28">
            <g
               id="use24"
               transform="translate(0,17.006001)">
              <path
                 style="stroke:none"
                 d="m 11.75,-10.109375 c -0.796875,0.140625 -1.09375,0.734375 -1.09375,1.21875 0,0.59375 0.46875,0.78125 0.8125,0.78125 0.75,0 1.265625,-0.640625 1.265625,-1.3125 0,-1.03125 -1.1875,-1.5 -2.234375,-1.5 -1.5,0 -2.34375,1.484375 -2.5625,1.953125 -0.578125,-1.859375 -2.109375,-1.953125 -2.5625,-1.953125 -2.53125,0 -3.859375,3.234375 -3.859375,3.78125 0,0.109375 0.09375,0.234375 0.265625,0.234375 0.203125,0 0.25,-0.15625 0.296875,-0.25 0.84375,-2.75 2.5,-3.28125 3.21875,-3.28125 1.125,0 1.34375,1.046875 1.34375,1.640625 C 6.640625,-8.25 6.5,-7.6875 6.1875,-6.5 l -0.828125,3.40625 c -0.375,1.484375 -1.09375,2.84375 -2.40625,2.84375 -0.125,0 -0.75,0 -1.265625,-0.3125 0.890625,-0.1875 1.09375,-0.921875 1.09375,-1.21875 0,-0.5 -0.375,-0.796875 -0.84375,-0.796875 -0.59375,0 -1.25,0.515625 -1.25,1.3125 0,1.046875 1.171875,1.515625 2.234375,1.515625 1.1875,0 2.03125,-0.9375 2.5625,-1.953125 C 5.875,-0.25 7.109375,0.25 8.03125,0.25 c 2.53125,0 3.859375,-3.25 3.859375,-3.796875 0,-0.125 -0.09375,-0.21875 -0.25,-0.21875 -0.21875,0 -0.234375,0.125 -0.3125,0.328125 -0.671875,2.171875 -2.109375,3.1875 -3.21875,3.1875 -0.875,0 -1.34375,-0.640625 -1.34375,-1.65625 0,-0.546875 0.09375,-0.9375 0.5,-2.578125 L 8.125,-7.859375 C 8.5,-9.34375 9.34375,-10.4375 10.484375,-10.4375 c 0.04687,0 0.734375,0 1.265625,0.328125 z m 0,0"
                 id="path41" />
            </g>
            <g
               id="use26"
               transform="translate(13.791542,17.006001)">
              <path
                 style="stroke:none"
                 d="m 4.828125,0.09375 c 0,-1.4375 -0.46875,-2.5 -1.484375,-2.5 -0.796875,0 -1.1875,0.640625 -1.1875,1.1875 C 2.15625,-0.671875 2.53125,0 3.375,0 3.6875,0 3.96875,-0.09375 4.1875,-0.328125 4.234375,-0.375 4.265625,-0.375 4.28125,-0.375 c 0.0625,0 0.0625,0.34375 0.0625,0.46875 0,0.828125 -0.15625,2.4375 -1.59375,4.046875 C 2.484375,4.4375 2.484375,4.484375 2.484375,4.53125 c 0,0.125 0.125,0.25 0.234375,0.25 0.203125,0 2.109375,-1.828125 2.109375,-4.6875 z m 0,0"
                 id="path45" />
            </g>
          </g>
        </g>
        <g
           style="fill:#000000;fill-opacity:1"
           id="g34">
          <g
             id="use32"
             transform="translate(24.665001,17.006001)">
            <path
               style="stroke:none"
               d="m 11.640625,-9.8125 4.1875,-5.59375 c 0.25,-0.328125 0.359375,-0.375 1.171875,-0.453125 0.640625,-0.07813 0.75,-0.07813 1.46875,-0.07813 h 0.640625 V -17 c -0.578125,0.04687 -2.5625,0.04687 -3.25,0.04687 -0.765625,0 -2.921875,0 -3.546875,-0.04687 v 1.0625 c 0.296875,0 1.515625,0 2.265625,0.296875 l -3.625,4.859375 -3.6875,-5.15625 H 9.3125 V -17 c -0.890625,0.04687 -3.21875,0.04687 -4.234375,0.04687 -0.84375,0 -3.296875,0 -3.96875,-0.04687 v 1.0625 h 2.40625 l 5.5,7.703125 -4.96875,6.640625 C 3.8125,-1.28125 3.734375,-1.21875 2.875,-1.140625 2.25,-1.09375 2.125,-1.0625 1.4375,-1.0625 H 0.765625 V 0 c 0.578125,-0.046875 2.578125,-0.046875 3.28125,-0.046875 0.765625,0 2.890625,0 3.515625,0.046875 v -1.0625 c -0.28125,0 -1.546875,0 -2.265625,-0.296875 L 9.71875,-7.265625 14.171875,-1.0625 H 12.125 V 0 c 0.78125,-0.046875 3.265625,-0.046875 4.203125,-0.046875 0.796875,0 3.34375,0 3.96875,0.046875 v -1.0625 h -2.375 z m 0,0"
               id="path49" />
          </g>
        </g>
      </g>
    </g>
    <g
       inkscape:label=""
       transform="translate(154.2476,49.665597)"
       id="g9735">
      <g
         id="g9733"
         transform="matrix(0.352778,0,0,0.352778,-0.237023,0.0881504)">
        <g
           clip-path="url(#clipPath3617)"
           clip-rule="nonzero"
           id="g19">
          <g
             style="fill:#000000;fill-opacity:1"
             id="g17">
            <g
               id="use15"
               transform="translate(0,10.672)">
              <path
                 style="stroke:none"
                 d="M 6.515625,2.78125 C 5.84375,3.71875 4.875,4.5625 3.671875,4.5625 3.375,4.5625 2.1875,4.515625 1.8125,3.375 1.890625,3.390625 2,3.390625 2.0625,3.390625 2.796875,3.390625 3.296875,2.75 3.296875,2.1875 3.296875,1.609375 2.828125,1.40625 2.453125,1.40625 2.0625,1.40625 1.1875,1.703125 1.1875,2.921875 1.1875,4.1875 2.25,5.0625 3.671875,5.0625 c 2.46875,0 4.984375,-2.28125 5.671875,-5.03125 l 2.421875,-9.671875 c 0.03125,-0.125 0.07813,-0.265625 0.07813,-0.421875 0,-0.375 -0.296875,-0.625 -0.671875,-0.625 -0.21875,0 -0.734375,0.109375 -0.9375,0.84375 l -1.82813,7.296875 c -0.125,0.4375 -0.125,0.484375 -0.328125,0.765625 -0.5,0.6875 -1.3125,1.53125 -2.5,1.53125 C 4.1875,-0.25 4.0625,-1.609375 4.0625,-2.28125 c 0,-1.40625 0.671875,-3.3125 1.34375,-5.109375 0.265625,-0.71875 0.421875,-1.0625 0.421875,-1.5625 0,-1.03125 -0.75,-1.96875 -1.96875,-1.96875 -2.265625,0 -3.1875,3.59375 -3.1875,3.78125 0,0.109375 0.09375,0.234375 0.265625,0.234375 0.234375,0 0.25,-0.109375 0.34375,-0.453125 0.609375,-2.078125 1.546875,-3.078125 2.515625,-3.078125 0.21875,0 0.640625,0 0.640625,0.828125 0,0.640625 -0.28125,1.359375 -0.640625,2.296875 -1.21875,3.25 -1.21875,4.0625 -1.21875,4.65625 0,2.359375 1.6875,2.90625 2.921875,2.90625 0.71875,0 1.609375,-0.21875 2.484375,-1.140625 L 8,-0.875 C 7.625,0.59375 7.390625,1.5625 6.515625,2.78125 Z m 0,0"
                 id="path26" />
            </g>
          </g>
        </g>
      </g>
    </g>
    <text
       xml:space="preserve"
       style="font-size:4.23333px;line-height:1.25;font-family:sans-serif;stroke-width:0.264583"
       x="-87.49305"
       y="25.357475"
       id="text9751"
       transform="rotate(-90)"><tspan
         sodipodi:role="line"
         id="tspan9749"
         style="stroke-width:0.264583"
         x="-87.49305"
         y="25.357475">Tabular data</tspan></text>
    <text
       xml:space="preserve"
       style="font-size:4.23333px;line-height:1.25;font-family:sans-serif;stroke-width:0.264583"
       x="-129.74062"
       y="22.669313"
       id="text9751-6"
       transform="rotate(-90)"><tspan
         sodipodi:role="line"
         id="tspan9749-5"
         style="text-align:center;text-anchor:middle;stroke-width:0.264583"
         x="-129.74062"
         y="22.669313">Image</tspan><tspan
         sodipodi:role="line"
         style="text-align:center;text-anchor:middle;stroke-width:0.264583"
         x="-129.74062"
         y="27.960976"
         id="tspan32401"> data</tspan></text>
    <text
       xml:space="preserve"
       style="font-size:4.23333px;line-height:1.25;font-family:sans-serif;stroke-width:0.264583"
       x="-150.25957"
       y="22.669313"
       id="text9751-6-4"
       transform="rotate(-90)"><tspan
         sodipodi:role="line"
         id="tspan9749-5-81"
         style="text-align:center;text-anchor:middle;stroke-width:0.264583"
         x="-150.25957"
         y="22.669313">Video</tspan><tspan
         sodipodi:role="line"
         style="text-align:center;text-anchor:middle;stroke-width:0.264583"
         x="-150.25957"
         y="27.960976"
         id="tspan32403">data</tspan></text>
    <text
       xml:space="preserve"
       style="font-size:4.23333px;line-height:1.25;font-family:sans-serif;stroke-width:0.264583"
       x="-106.11978"
       y="23.647213"
       id="text9751-6-9"
       transform="rotate(-90)"><tspan
         sodipodi:role="line"
         id="tspan9749-5-8"
         style="text-align:center;text-anchor:middle;stroke-width:0.264583"
         x="-106.11978"
         y="23.647213">Time series</tspan><tspan
         sodipodi:role="line"
         style="text-align:center;text-anchor:middle;stroke-width:0.264583"
         x="-106.11978"
         y="28.938875"
         id="tspan32399"> data</tspan></text>
    <g
       id="g32361"
       transform="translate(18.232084,-10.684287)">
      <rect
         style="fill:none;stroke:#404040;stroke-width:0.269595;stroke-miterlimit:9.9;stroke-dasharray:none;paint-order:stroke fill markers;stop-color:#000000"
         id="rect10298-6-1-56"
         width="23.706238"
         height="3.7789147"
         x="74.070839"
         y="141.0629"
         transform="matrix(0,1,1,0,0,0)" />
      <path
         style="fill:none;stroke:#000000;stroke-width:0.264583px;stroke-linecap:butt;stroke-linejoin:miter;stroke-opacity:1"
         d="m 141.11295,78.028108 h 3.69648"
         id="path10512" />
      <path
         style="fill:none;stroke:#000000;stroke-width:0.264583px;stroke-linecap:butt;stroke-linejoin:miter;stroke-opacity:1"
         d="m 141.05911,82.018273 h 3.73125"
         id="path10514" />
      <path
         style="fill:none;stroke:#000000;stroke-width:0.264583px;stroke-linecap:butt;stroke-linejoin:miter;stroke-opacity:1"
         d="m 141.13245,85.883357 h 3.75163"
         id="path10516" />
      <path
         style="fill:none;stroke:#000000;stroke-width:0.264583px;stroke-linecap:butt;stroke-linejoin:miter;stroke-opacity:1"
         d="m 141.24081,89.848357 h 3.44447"
         id="path10518" />
      <path
         style="fill:none;stroke:#000000;stroke-width:0.264583px;stroke-linecap:butt;stroke-linejoin:miter;stroke-opacity:1"
         d="m 141.1834,93.802857 h 3.58117"
         id="path10520" />
      <g
         id="g13823"
         transform="matrix(0.1058334,0,0,0.1058334,141.87055,75.391438)">
        <g
           clip-path="url(#clipPath1303)"
           clip-rule="nonzero"
           id="g13676">
          <g
             style="fill:#000000;fill-opacity:1"
             id="g71">
            <g
               id="use69"
               transform="translate(0,10.672)">
              <path
                 style="stroke:none"
                 d="M 6.515625,2.78125 C 5.84375,3.71875 4.875,4.5625 3.671875,4.5625 3.375,4.5625 2.1875,4.515625 1.8125,3.375 1.890625,3.390625 2,3.390625 2.0625,3.390625 2.796875,3.390625 3.296875,2.75 3.296875,2.1875 3.296875,1.609375 2.828125,1.40625 2.453125,1.40625 2.0625,1.40625 1.1875,1.703125 1.1875,2.921875 1.1875,4.1875 2.25,5.0625 3.671875,5.0625 c 2.46875,0 4.984375,-2.28125 5.671875,-5.03125 l 2.421875,-9.671875 c 0.03125,-0.125 0.07813,-0.265625 0.07813,-0.421875 0,-0.375 -0.296875,-0.625 -0.671875,-0.625 -0.21875,0 -0.734375,0.109375 -0.9375,0.84375 l -1.82813,7.296875 c -0.125,0.4375 -0.125,0.484375 -0.328125,0.765625 -0.5,0.6875 -1.3125,1.53125 -2.5,1.53125 C 4.1875,-0.25 4.0625,-1.609375 4.0625,-2.28125 c 0,-1.40625 0.671875,-3.3125 1.34375,-5.109375 0.265625,-0.71875 0.421875,-1.0625 0.421875,-1.5625 0,-1.03125 -0.75,-1.96875 -1.96875,-1.96875 -2.265625,0 -3.1875,3.59375 -3.1875,3.78125 0,0.109375 0.09375,0.234375 0.265625,0.234375 0.234375,0 0.25,-0.109375 0.34375,-0.453125 0.609375,-2.078125 1.546875,-3.078125 2.515625,-3.078125 0.21875,0 0.640625,0 0.640625,0.828125 0,0.640625 -0.28125,1.359375 -0.640625,2.296875 -1.21875,3.25 -1.21875,4.0625 -1.21875,4.65625 0,2.359375 1.6875,2.90625 2.921875,2.90625 0.71875,0 1.609375,-0.21875 2.484375,-1.140625 L 8,-0.875 C 7.625,0.59375 7.390625,1.5625 6.515625,2.78125 Z m 0,0"
                 id="path146" />
            </g>
          </g>
        </g>
        <g
           clip-path="url(#clipPath3686)"
           clip-rule="nonzero"
           id="g13681">
          <g
             style="fill:#000000;fill-opacity:1"
             id="g77">
            <g
               id="use75"
               transform="translate(11.834,15.454)">
              <path
                 style="stroke:none"
                 d="m 5.5,-13.203125 c 0,-0.4375 -0.03125,-0.453125 -0.3125,-0.453125 C 4.375,-12.6875 3.15625,-12.375 2,-12.328125 c -0.0625,0 -0.15625,0 -0.1875,0.03125 -0.015625,0.04687 -0.015625,0.09375 -0.015625,0.515625 0.640625,0 1.71875,-0.109375 2.546875,-0.609375 v 10.875 c 0,0.734375 -0.046875,0.984375 -1.828125,0.984375 H 1.90625 V 0 C 2.890625,-0.015625 3.921875,-0.046875 4.921875,-0.046875 5.90625,-0.046875 6.9375,-0.015625 7.9375,0 V -0.53125 H 7.3125 C 5.53125,-0.53125 5.5,-0.765625 5.5,-1.515625 Z m 0,0"
                 id="path150" />
            </g>
          </g>
        </g>
      </g>
      <g
         id="g13833"
         transform="matrix(0.1058334,0,0,0.1058334,139.52698,79.324456)">
        <g
           clip-path="url(#clipPath5510)"
           clip-rule="nonzero"
           id="g13688">
          <g
             style="fill:#000000;fill-opacity:1"
             id="g13686">
            <g
               id="g13684"
               transform="translate(21.808001,10.672)">
              <path
                 style="stroke:none"
                 d="M 6.515625,2.78125 C 5.84375,3.71875 4.875,4.5625 3.671875,4.5625 3.375,4.5625 2.1875,4.515625 1.8125,3.375 1.890625,3.390625 2,3.390625 2.0625,3.390625 2.796875,3.390625 3.296875,2.75 3.296875,2.1875 3.296875,1.609375 2.828125,1.40625 2.453125,1.40625 2.0625,1.40625 1.1875,1.703125 1.1875,2.921875 1.1875,4.1875 2.25,5.0625 3.671875,5.0625 c 2.46875,0 4.984375,-2.28125 5.671875,-5.03125 l 2.421875,-9.671875 c 0.03125,-0.125 0.07813,-0.265625 0.07813,-0.421875 0,-0.375 -0.296875,-0.625 -0.671875,-0.625 -0.21875,0 -0.734375,0.109375 -0.9375,0.84375 l -1.82813,7.296875 c -0.125,0.4375 -0.125,0.484375 -0.328125,0.765625 -0.5,0.6875 -1.3125,1.53125 -2.5,1.53125 C 4.1875,-0.25 4.0625,-1.609375 4.0625,-2.28125 c 0,-1.40625 0.671875,-3.3125 1.34375,-5.109375 0.265625,-0.71875 0.421875,-1.0625 0.421875,-1.5625 0,-1.03125 -0.75,-1.96875 -1.96875,-1.96875 -2.265625,0 -3.1875,3.59375 -3.1875,3.78125 0,0.109375 0.09375,0.234375 0.265625,0.234375 0.234375,0 0.25,-0.109375 0.34375,-0.453125 0.609375,-2.078125 1.546875,-3.078125 2.515625,-3.078125 0.21875,0 0.640625,0 0.640625,0.828125 0,0.640625 -0.28125,1.359375 -0.640625,2.296875 -1.21875,3.25 -1.21875,4.0625 -1.21875,4.65625 0,2.359375 1.6875,2.90625 2.921875,2.90625 0.71875,0 1.609375,-0.21875 2.484375,-1.140625 L 8,-0.875 C 7.625,0.59375 7.390625,1.5625 6.515625,2.78125 Z m 0,0"
                 id="path154" />
            </g>
          </g>
        </g>
        <g
           clip-path="url(#clipPath9043)"
           clip-rule="nonzero"
           id="g91">
          <g
             style="fill:#000000;fill-opacity:1"
             id="g13693">
            <g
               id="g13691"
               transform="translate(33.641998,15.454)">
              <path
                 style="stroke:none"
                 d="m 8.609375,-3.203125 h -0.375 c -0.203125,1.46875 -0.359375,1.71875 -0.453125,1.84375 -0.09375,0.15625 -1.578125,0.15625 -1.875,0.15625 H 1.9375 C 2.6875,-2 4.125,-3.46875 5.890625,-5.171875 c 1.25,-1.1875 2.71875,-2.59375 2.71875,-4.640625 0,-2.4375 -1.9375,-3.84375 -4.109375,-3.84375 -2.265625,0 -3.65625,2 -3.65625,3.859375 0,0.8125 0.609375,0.921875 0.84375,0.921875 0.21875,0 0.828125,-0.125 0.828125,-0.859375 0,-0.640625 -0.53125,-0.828125 -0.828125,-0.828125 -0.125,0 -0.234375,0.03125 -0.328125,0.0625 0.390625,-1.75 1.59375,-2.609375 2.859375,-2.609375 1.796875,0 2.96875,1.421875 2.96875,3.296875 0,1.796875 -1.046875,3.34375 -2.234375,4.6875 L 0.84375,-0.46875 V 0 H 8.125 Z m 0,0"
                 id="path158" />
            </g>
          </g>
        </g>
      </g>
      <g
         id="g13843"
         transform="matrix(0.1058334,0,0,0.1058334,137.20976,83.257473)">
        <g
           clip-path="url(#clipPath9920)"
           clip-rule="nonzero"
           id="g97">
          <g
             style="fill:#000000;fill-opacity:1"
             id="g13698">
            <g
               id="use93"
               transform="translate(43.617001,10.672)">
              <path
                 style="stroke:none"
                 d="M 6.515625,2.78125 C 5.84375,3.71875 4.875,4.5625 3.671875,4.5625 3.375,4.5625 2.1875,4.515625 1.8125,3.375 1.890625,3.390625 2,3.390625 2.0625,3.390625 2.796875,3.390625 3.296875,2.75 3.296875,2.1875 3.296875,1.609375 2.828125,1.40625 2.453125,1.40625 2.0625,1.40625 1.1875,1.703125 1.1875,2.921875 1.1875,4.1875 2.25,5.0625 3.671875,5.0625 c 2.46875,0 4.984375,-2.28125 5.671875,-5.03125 l 2.421875,-9.671875 c 0.03125,-0.125 0.07813,-0.265625 0.07813,-0.421875 0,-0.375 -0.296875,-0.625 -0.671875,-0.625 -0.21875,0 -0.734375,0.109375 -0.9375,0.84375 l -1.82813,7.296875 c -0.125,0.4375 -0.125,0.484375 -0.328125,0.765625 -0.5,0.6875 -1.3125,1.53125 -2.5,1.53125 C 4.1875,-0.25 4.0625,-1.609375 4.0625,-2.28125 c 0,-1.40625 0.671875,-3.3125 1.34375,-5.109375 0.265625,-0.71875 0.421875,-1.0625 0.421875,-1.5625 0,-1.03125 -0.75,-1.96875 -1.96875,-1.96875 -2.265625,0 -3.1875,3.59375 -3.1875,3.78125 0,0.109375 0.09375,0.234375 0.265625,0.234375 0.234375,0 0.25,-0.109375 0.34375,-0.453125 0.609375,-2.078125 1.546875,-3.078125 2.515625,-3.078125 0.21875,0 0.640625,0 0.640625,0.828125 0,0.640625 -0.28125,1.359375 -0.640625,2.296875 -1.21875,3.25 -1.21875,4.0625 -1.21875,4.65625 0,2.359375 1.6875,2.90625 2.921875,2.90625 0.71875,0 1.609375,-0.21875 2.484375,-1.140625 L 8,-0.875 C 7.625,0.59375 7.390625,1.5625 6.515625,2.78125 Z m 0,0"
                 id="path162" />
            </g>
          </g>
        </g>
        <g
           clip-path="url(#clipPath9031)"
           clip-rule="nonzero"
           id="g13704">
          <g
             style="fill:#000000;fill-opacity:1"
             id="g101">
            <g
               id="use99"
               transform="translate(55.451,15.454)">
              <path
                 style="stroke:none"
                 d="m 4.5625,-7.015625 c 1.84375,0 2.640625,1.578125 2.640625,3.421875 0,2.484375 -1.3125,3.421875 -2.515625,3.421875 -1.09375,0 -2.875,-0.53125 -3.421875,-2.125 C 1.359375,-2.25 1.46875,-2.25 1.5625,-2.25 c 0.5,0 0.875,-0.328125 0.875,-0.875 0,-0.59375 -0.453125,-0.859375 -0.875,-0.859375 -0.34375,0 -0.875,0.15625 -0.875,0.921875 0,1.90625 1.859375,3.390625 4.046875,3.390625 2.28125,0 4.046875,-1.796875 4.046875,-3.90625 0,-2 -1.65625,-3.4375 -3.609375,-3.671875 1.5625,-0.328125 3.0625,-1.734375 3.0625,-3.609375 0,-1.609375 -1.625,-2.796875 -3.484375,-2.796875 -1.875,0 -3.53125,1.15625 -3.53125,2.8125 0,0.71875 0.53125,0.84375 0.8125,0.84375 0.421875,0 0.796875,-0.265625 0.796875,-0.796875 0,-0.546875 -0.375,-0.8125 -0.796875,-0.8125 -0.09375,0 -0.1875,0 -0.28125,0.04687 0.609375,-1.375 2.234375,-1.609375 2.953125,-1.609375 0.734375,0 2.09375,0.34375 2.09375,2.328125 0,0.578125 -0.078125,1.609375 -0.78125,2.515625 C 5.390625,-7.515625 4.6875,-7.484375 4,-7.421875 3.90625,-7.421875 3.421875,-7.375 3.34375,-7.375 3.203125,-7.359375 3.125,-7.328125 3.125,-7.1875 c 0,0.140625 0.015625,0.171875 0.421875,0.171875 z m 0,0"
                 id="path166" />
            </g>
          </g>
        </g>
      </g>
      <g
         id="g13853"
         transform="matrix(0.1058334,0,0,0.1058334,134.88769,87.190491)">
        <g
           clip-path="url(#clipPath9368)"
           clip-rule="nonzero"
           id="g13709">
          <g
             style="fill:#000000;fill-opacity:1"
             id="g107">
            <g
               id="use105"
               transform="translate(65.425003,10.672)">
              <path
                 style="stroke:none"
                 d="M 6.515625,2.78125 C 5.84375,3.71875 4.875,4.5625 3.671875,4.5625 3.375,4.5625 2.1875,4.515625 1.8125,3.375 1.890625,3.390625 2,3.390625 2.0625,3.390625 2.796875,3.390625 3.296875,2.75 3.296875,2.1875 3.296875,1.609375 2.828125,1.40625 2.453125,1.40625 2.0625,1.40625 1.1875,1.703125 1.1875,2.921875 1.1875,4.1875 2.25,5.0625 3.671875,5.0625 c 2.46875,0 4.984375,-2.28125 5.671875,-5.03125 l 2.421875,-9.671875 c 0.03125,-0.125 0.07813,-0.265625 0.07813,-0.421875 0,-0.375 -0.296875,-0.625 -0.671875,-0.625 -0.21875,0 -0.734375,0.109375 -0.9375,0.84375 l -1.82813,7.296875 c -0.125,0.4375 -0.125,0.484375 -0.328125,0.765625 -0.5,0.6875 -1.3125,1.53125 -2.5,1.53125 C 4.1875,-0.25 4.0625,-1.609375 4.0625,-2.28125 c 0,-1.40625 0.671875,-3.3125 1.34375,-5.109375 0.265625,-0.71875 0.421875,-1.0625 0.421875,-1.5625 0,-1.03125 -0.75,-1.96875 -1.96875,-1.96875 -2.265625,0 -3.1875,3.59375 -3.1875,3.78125 0,0.109375 0.09375,0.234375 0.265625,0.234375 0.234375,0 0.25,-0.109375 0.34375,-0.453125 0.609375,-2.078125 1.546875,-3.078125 2.515625,-3.078125 0.21875,0 0.640625,0 0.640625,0.828125 0,0.640625 -0.28125,1.359375 -0.640625,2.296875 -1.21875,3.25 -1.21875,4.0625 -1.21875,4.65625 0,2.359375 1.6875,2.90625 2.921875,2.90625 0.71875,0 1.609375,-0.21875 2.484375,-1.140625 L 8,-0.875 C 7.625,0.59375 7.390625,1.5625 6.515625,2.78125 Z m 0,0"
                 id="path170" />
            </g>
          </g>
        </g>
        <g
           clip-path="url(#clipPath4476)"
           clip-rule="nonzero"
           id="g13716">
          <g
             style="fill:#000000;fill-opacity:1"
             id="g13714">
            <g
               id="g13712"
               transform="translate(77.259003,15.454)">
              <path
                 style="stroke:none"
                 d="m 6.9375,-13.359375 c 0,-0.4375 -0.015625,-0.453125 -0.390625,-0.453125 L 0.40625,-4.046875 v 0.53125 H 5.75 v 2.03125 C 5.75,-0.75 5.703125,-0.53125 4.25,-0.53125 H 3.859375 V 0 c 0.671875,-0.046875 1.78125,-0.046875 2.484375,-0.046875 0.703125,0 1.8125,0 2.46875,0.046875 V -0.53125 H 8.421875 C 6.984375,-0.53125 6.9375,-0.75 6.9375,-1.484375 v -2.03125 h 2.109375 v -0.53125 H 6.9375 Z M 5.796875,-12 v 7.953125 h -4.96875 z m 0,0"
                 id="path174" />
            </g>
          </g>
        </g>
      </g>
      <g
         id="g13863"
         transform="matrix(0.1058334,0,0,0.1058334,132.60283,91.123508)">
        <g
           clip-path="url(#clipPath9296)"
           clip-rule="nonzero"
           id="g121">
          <g
             style="fill:#000000;fill-opacity:1"
             id="g119">
            <g
               id="use117"
               transform="translate(87.233002,10.672)">
              <path
                 style="stroke:none"
                 d="M 6.515625,2.78125 C 5.84375,3.71875 4.875,4.5625 3.671875,4.5625 3.375,4.5625 2.1875,4.515625 1.8125,3.375 1.890625,3.390625 2,3.390625 2.0625,3.390625 2.796875,3.390625 3.296875,2.75 3.296875,2.1875 3.296875,1.609375 2.828125,1.40625 2.453125,1.40625 2.0625,1.40625 1.1875,1.703125 1.1875,2.921875 1.1875,4.1875 2.25,5.0625 3.671875,5.0625 c 2.46875,0 4.984375,-2.28125 5.671875,-5.03125 l 2.421875,-9.671875 c 0.03125,-0.125 0.07813,-0.265625 0.07813,-0.421875 0,-0.375 -0.296875,-0.625 -0.671875,-0.625 -0.21875,0 -0.734375,0.109375 -0.9375,0.84375 l -1.82813,7.296875 c -0.125,0.4375 -0.125,0.484375 -0.328125,0.765625 -0.5,0.6875 -1.3125,1.53125 -2.5,1.53125 C 4.1875,-0.25 4.0625,-1.609375 4.0625,-2.28125 c 0,-1.40625 0.671875,-3.3125 1.34375,-5.109375 0.265625,-0.71875 0.421875,-1.0625 0.421875,-1.5625 0,-1.03125 -0.75,-1.96875 -1.96875,-1.96875 -2.265625,0 -3.1875,3.59375 -3.1875,3.78125 0,0.109375 0.09375,0.234375 0.265625,0.234375 0.234375,0 0.25,-0.109375 0.34375,-0.453125 0.609375,-2.078125 1.546875,-3.078125 2.515625,-3.078125 0.21875,0 0.640625,0 0.640625,0.828125 0,0.640625 -0.28125,1.359375 -0.640625,2.296875 -1.21875,3.25 -1.21875,4.0625 -1.21875,4.65625 0,2.359375 1.6875,2.90625 2.921875,2.90625 0.71875,0 1.609375,-0.21875 2.484375,-1.140625 L 8,-0.875 C 7.625,0.59375 7.390625,1.5625 6.515625,2.78125 Z m 0,0"
                 id="path178" />
            </g>
          </g>
        </g>
        <g
           clip-path="url(#clipPath8997)"
           clip-rule="nonzero"
           id="g127">
          <g
             style="fill:#000000;fill-opacity:1"
             id="g125">
            <g
               id="use123"
               transform="translate(99.067001,15.454)">
              <path
                 style="stroke:none"
                 d="m 2.359375,-12.078125 c 0.203125,0.07813 1.046875,0.34375 1.921875,0.34375 1.921875,0 2.96875,-1.03125 3.5625,-1.625 0,-0.171875 0,-0.28125 -0.125,-0.28125 -0.015625,0 -0.0625,0 -0.21875,0.09375 C 6.78125,-13.234375 5.921875,-13 4.890625,-13 c -0.609375,0 -1.546875,-0.07813 -2.5625,-0.53125 -0.21875,-0.109375 -0.265625,-0.109375 -0.28125,-0.109375 -0.109375,0 -0.125,0.03125 -0.125,0.4375 v 6 c 0,0.359375 0,0.46875 0.203125,0.46875 0.109375,0 0.140625,-0.046875 0.25,-0.1875 0.65625,-0.921875 1.578125,-1.3125 2.609375,-1.3125 0.71875,0 2.265625,0.453125 2.265625,3.984375 0,0.65625 0,1.859375 -0.625,2.796875 -0.515625,0.859375 -1.3125,1.28125 -2.203125,1.28125 -1.359375,0 -2.75,-0.9375 -3.125,-2.53125 0.09375,0.015625 0.25,0.0625 0.328125,0.0625 0.28125,0 0.796875,-0.140625 0.796875,-0.78125 0,-0.5625 -0.390625,-0.796875 -0.796875,-0.796875 -0.46875,0 -0.78125,0.296875 -0.78125,0.875 0,1.796875 1.421875,3.671875 3.625,3.671875 2.125,0 4.140625,-1.84375 4.140625,-4.5 C 8.609375,-6.65625 7,-8.578125 5,-8.578125 c -1.046875,0 -1.9375,0.390625 -2.640625,1.140625 z m 0,0"
                 id="path182" />
            </g>
          </g>
        </g>
      </g>
      <g
         id="g13873"
         transform="matrix(0.1058334,0,0,0.1058334,130.29151,95.067682)">
        <g
           clip-path="url(#clipPath1861)"
           clip-rule="nonzero"
           id="g133">
          <g
             style="fill:#000000;fill-opacity:1"
             id="g131">
            <g
               id="use129"
               transform="translate(109.041,10.672)">
              <path
                 style="stroke:none"
                 d="M 6.515625,2.78125 C 5.84375,3.71875 4.875,4.5625 3.671875,4.5625 3.375,4.5625 2.1875,4.515625 1.8125,3.375 1.890625,3.390625 2,3.390625 2.0625,3.390625 2.796875,3.390625 3.296875,2.75 3.296875,2.1875 3.296875,1.609375 2.828125,1.40625 2.453125,1.40625 2.0625,1.40625 1.1875,1.703125 1.1875,2.921875 1.1875,4.1875 2.25,5.0625 3.671875,5.0625 c 2.46875,0 4.984375,-2.28125 5.671875,-5.03125 l 2.421875,-9.671875 c 0.03125,-0.125 0.07813,-0.265625 0.07813,-0.421875 0,-0.375 -0.296875,-0.625 -0.671875,-0.625 -0.21875,0 -0.734375,0.109375 -0.9375,0.84375 l -1.82813,7.296875 c -0.125,0.4375 -0.125,0.484375 -0.328125,0.765625 -0.5,0.6875 -1.3125,1.53125 -2.5,1.53125 C 4.1875,-0.25 4.0625,-1.609375 4.0625,-2.28125 c 0,-1.40625 0.671875,-3.3125 1.34375,-5.109375 0.265625,-0.71875 0.421875,-1.0625 0.421875,-1.5625 0,-1.03125 -0.75,-1.96875 -1.96875,-1.96875 -2.265625,0 -3.1875,3.59375 -3.1875,3.78125 0,0.109375 0.09375,0.234375 0.265625,0.234375 0.234375,0 0.25,-0.109375 0.34375,-0.453125 0.609375,-2.078125 1.546875,-3.078125 2.515625,-3.078125 0.21875,0 0.640625,0 0.640625,0.828125 0,0.640625 -0.28125,1.359375 -0.640625,2.296875 -1.21875,3.25 -1.21875,4.0625 -1.21875,4.65625 0,2.359375 1.6875,2.90625 2.921875,2.90625 0.71875,0 1.609375,-0.21875 2.484375,-1.140625 L 8,-0.875 C 7.625,0.59375 7.390625,1.5625 6.515625,2.78125 Z m 0,0"
                 id="path186" />
            </g>
          </g>
        </g>
        <g
           clip-path="url(#clipPath9900)"
           clip-rule="nonzero"
           id="g139">
          <g
             style="fill:#000000;fill-opacity:1"
             id="g137">
            <g
               id="use135"
               transform="translate(120.875,15.454)">
              <path
                 style="stroke:none"
                 d="m 2.1875,-7.125 c 0,-4.9375 2.3125,-6.046875 3.65625,-6.046875 0.4375,0 1.484375,0.07813 1.90625,0.875 -0.328125,0 -0.953125,0 -0.953125,0.734375 0,0.546875 0.453125,0.734375 0.75,0.734375 0.171875,0 0.734375,-0.07813 0.734375,-0.78125 0,-1.296875 -1.03125,-2.046875 -2.453125,-2.046875 -2.46875,0 -5.046875,2.5625 -5.046875,7.125 0,5.625 2.34375,6.859375 3.984375,6.859375 2.015625,0 3.90625,-1.796875 3.90625,-4.5625 0,-2.578125 -1.671875,-4.46875 -3.78125,-4.46875 -1.25,0 -2.1875,0.828125 -2.703125,2.28125 z m 2.578125,6.953125 c -2.53125,0 -2.53125,-3.796875 -2.53125,-4.5625 0,-1.484375 0.703125,-3.625 2.625,-3.625 0.34375,0 1.359375,0 2.046875,1.421875 0.359375,0.796875 0.359375,1.65625 0.359375,2.6875 0,1.109375 0,1.9375 -0.421875,2.765625 -0.46875,0.84375 -1.125,1.3125 -2.078125,1.3125 z m 0,0"
                 id="path190" />
            </g>
          </g>
        </g>
      </g>
      <text
         xml:space="preserve"
         style="font-size:2.82222px;line-height:1.25;font-family:sans-serif;fill:#808080;stroke-width:0.264583"
         x="-91.338226"
         y="133.1405"
         id="text10461-77"
         transform="rotate(-90)"><tspan
           sodipodi:role="line"
           id="tspan10459-67"
           style="font-size:2.82222px;fill:#808080;stroke-width:0.264583"
           x="-91.338226"
           y="133.1405">Samples</tspan></text>
      <path
         style="fill:#808080;stroke:#808080;stroke-width:0.264583px;stroke-linecap:butt;stroke-linejoin:miter;stroke-opacity:1;marker-end:url(#TriangleStart-5)"
         d="M 136.29668,76.440183 V 94.646006"
         id="path14041-3" />
    </g>
    <g
       id="g32278"
       transform="translate(13.014474,-7.3316047)">
      <text
         xml:space="preserve"
         style="font-size:2.82222px;line-height:1.25;font-family:sans-serif;fill:#808080;stroke-width:0.264583"
         x="-91.384628"
         y="46.632854"
         id="text10461"
         transform="rotate(-90)"><tspan
           sodipodi:role="line"
           id="tspan10459"
           style="font-size:2.82222px;fill:#808080;stroke-width:0.264583"
           x="-91.384628"
           y="46.632854">Samples</tspan></text>
      <text
         xml:space="preserve"
         style="font-size:2.82222px;line-height:1.25;font-family:sans-serif;fill:#808080;stroke-width:0.264583"
         x="57.372417"
         y="69.3349"
         id="text10461-7"><tspan
           sodipodi:role="line"
           id="tspan10459-6"
           style="font-size:2.82222px;fill:#808080;stroke-width:0.264583"
           x="57.372417"
           y="69.3349">Features</tspan></text>
      <g
         id="g14039"
         transform="translate(20.027917,7.0274972)">
        <rect
           style="fill:none;stroke:#404040;stroke-width:0.49647;stroke-miterlimit:9.9;stroke-dasharray:none;paint-order:stroke fill markers;stop-color:#000000"
           id="rect9805"
           width="20.388227"
           height="23.575449"
           x="33.283905"
           y="66.971535" />
        <rect
           style="fill:none;stroke:#404040;stroke-width:0.25;stroke-miterlimit:9.9;stroke-dasharray:none;paint-order:stroke fill markers;stop-color:#000000"
           id="rect10298"
           width="20.280174"
           height="3.7985101"
           x="33.313957"
           y="67.137123" />
        <rect
           style="fill:none;stroke:#404040;stroke-width:0.25;stroke-miterlimit:9.9;stroke-dasharray:none;paint-order:stroke fill markers;stop-color:#000000"
           id="rect10298-6"
           width="20.280174"
           height="3.7985101"
           x="33.233391"
           y="-74.874878"
           transform="scale(1,-1)" />
        <rect
           style="fill:none;stroke:#404040;stroke-width:0.25;stroke-miterlimit:9.9;stroke-dasharray:none;paint-order:stroke fill markers;stop-color:#000000"
           id="rect10298-6-1"
           width="20.280174"
           height="3.7985101"
           x="33.352493"
           y="-78.701561"
           transform="scale(1,-1)" />
        <rect
           style="fill:none;stroke:#404040;stroke-width:0.25;stroke-miterlimit:9.9;stroke-dasharray:none;paint-order:stroke fill markers;stop-color:#000000"
           id="rect10298-6-1-5"
           width="20.280174"
           height="3.7985101"
           x="33.233665"
           y="-82.627884"
           transform="scale(1,-1)" />
        <rect
           style="fill:none;stroke:#404040;stroke-width:0.25;stroke-miterlimit:9.9;stroke-dasharray:none;paint-order:stroke fill markers;stop-color:#000000"
           id="rect10298-6-1-5-5"
           width="20.280174"
           height="3.7985101"
           x="33.321178"
           y="-86.567665"
           transform="scale(1,-1)" />
        <rect
           style="fill:none;stroke:#404040;stroke-width:0.25;stroke-miterlimit:9.9;stroke-dasharray:none;paint-order:stroke fill markers;stop-color:#000000"
           id="rect10298-6-1-5-5-4"
           width="20.280174"
           height="3.7985101"
           x="33.2006"
           y="-90.528931"
           transform="scale(1,-1)" />
        <g
           id="g12940"
           transform="matrix(0.1058334,0,0,0.1058334,42.267811,68.29611)">
          <g
             style="fill:#000000;fill-opacity:1"
             id="g59">
            <g
               id="use57"
               transform="translate(0,10.672)">
              <path
                 style="stroke:none"
                 d="m 11.75,-10.109375 c -0.796875,0.140625 -1.09375,0.734375 -1.09375,1.21875 0,0.59375 0.46875,0.78125 0.8125,0.78125 0.75,0 1.265625,-0.640625 1.265625,-1.3125 0,-1.03125 -1.1875,-1.5 -2.234375,-1.5 -1.5,0 -2.34375,1.484375 -2.5625,1.953125 -0.578125,-1.859375 -2.109375,-1.953125 -2.5625,-1.953125 -2.53125,0 -3.859375,3.234375 -3.859375,3.78125 0,0.109375 0.09375,0.234375 0.265625,0.234375 0.203125,0 0.25,-0.15625 0.296875,-0.25 0.84375,-2.75 2.5,-3.28125 3.21875,-3.28125 1.125,0 1.34375,1.046875 1.34375,1.640625 C 6.640625,-8.25 6.5,-7.6875 6.1875,-6.5 l -0.828125,3.40625 c -0.375,1.484375 -1.09375,2.84375 -2.40625,2.84375 -0.125,0 -0.75,0 -1.265625,-0.3125 0.890625,-0.1875 1.09375,-0.921875 1.09375,-1.21875 0,-0.5 -0.375,-0.796875 -0.84375,-0.796875 -0.59375,0 -1.25,0.515625 -1.25,1.3125 0,1.046875 1.171875,1.515625 2.234375,1.515625 1.1875,0 2.03125,-0.9375 2.5625,-1.953125 C 5.875,-0.25 7.109375,0.25 8.03125,0.25 c 2.53125,0 3.859375,-3.25 3.859375,-3.796875 0,-0.125 -0.09375,-0.21875 -0.25,-0.21875 -0.21875,0 -0.234375,0.125 -0.3125,0.328125 -0.671875,2.171875 -2.109375,3.1875 -3.21875,3.1875 -0.875,0 -1.34375,-0.640625 -1.34375,-1.65625 0,-0.546875 0.09375,-0.9375 0.5,-2.578125 L 8.125,-7.859375 C 8.5,-9.34375 9.34375,-10.4375 10.484375,-10.4375 c 0.04687,0 0.734375,0 1.265625,0.328125 z m 0,0"
                 id="path132" />
            </g>
          </g>
          <g
             clip-path="url(#clipPath2000)"
             clip-rule="nonzero"
             id="g65">
            <g
               style="fill:#000000;fill-opacity:1"
               id="g63">
              <g
                 id="use61"
                 transform="translate(13.792,15.454)">
                <path
                   style="stroke:none"
                   d="m 5.5,-13.203125 c 0,-0.4375 -0.03125,-0.453125 -0.3125,-0.453125 C 4.375,-12.6875 3.15625,-12.375 2,-12.328125 c -0.0625,0 -0.15625,0 -0.1875,0.03125 -0.015625,0.04687 -0.015625,0.09375 -0.015625,0.515625 0.640625,0 1.71875,-0.109375 2.546875,-0.609375 v 10.875 c 0,0.734375 -0.046875,0.984375 -1.828125,0.984375 H 1.90625 V 0 C 2.890625,-0.015625 3.921875,-0.046875 4.921875,-0.046875 5.90625,-0.046875 6.9375,-0.015625 7.9375,0 V -0.53125 H 7.3125 C 5.53125,-0.53125 5.5,-0.765625 5.5,-1.515625 Z m 0,0"
                   id="path136" />
              </g>
            </g>
          </g>
        </g>
        <g
           id="g12949"
           transform="matrix(0.1058334,0,0,0.1058334,39.717021,72.229128)">
          <g
             style="fill:#000000;fill-opacity:1"
             id="g69">
            <g
               id="use67"
               transform="translate(23.766001,10.672)">
              <path
                 style="stroke:none"
                 d="m 11.75,-10.109375 c -0.796875,0.140625 -1.09375,0.734375 -1.09375,1.21875 0,0.59375 0.46875,0.78125 0.8125,0.78125 0.75,0 1.265625,-0.640625 1.265625,-1.3125 0,-1.03125 -1.1875,-1.5 -2.234375,-1.5 -1.5,0 -2.34375,1.484375 -2.5625,1.953125 -0.578125,-1.859375 -2.109375,-1.953125 -2.5625,-1.953125 -2.53125,0 -3.859375,3.234375 -3.859375,3.78125 0,0.109375 0.09375,0.234375 0.265625,0.234375 0.203125,0 0.25,-0.15625 0.296875,-0.25 0.84375,-2.75 2.5,-3.28125 3.21875,-3.28125 1.125,0 1.34375,1.046875 1.34375,1.640625 C 6.640625,-8.25 6.5,-7.6875 6.1875,-6.5 l -0.828125,3.40625 c -0.375,1.484375 -1.09375,2.84375 -2.40625,2.84375 -0.125,0 -0.75,0 -1.265625,-0.3125 0.890625,-0.1875 1.09375,-0.921875 1.09375,-1.21875 0,-0.5 -0.375,-0.796875 -0.84375,-0.796875 -0.59375,0 -1.25,0.515625 -1.25,1.3125 0,1.046875 1.171875,1.515625 2.234375,1.515625 1.1875,0 2.03125,-0.9375 2.5625,-1.953125 C 5.875,-0.25 7.109375,0.25 8.03125,0.25 c 2.53125,0 3.859375,-3.25 3.859375,-3.796875 0,-0.125 -0.09375,-0.21875 -0.25,-0.21875 -0.21875,0 -0.234375,0.125 -0.3125,0.328125 -0.671875,2.171875 -2.109375,3.1875 -3.21875,3.1875 -0.875,0 -1.34375,-0.640625 -1.34375,-1.65625 0,-0.546875 0.09375,-0.9375 0.5,-2.578125 L 8.125,-7.859375 C 8.5,-9.34375 9.34375,-10.4375 10.484375,-10.4375 c 0.04687,0 0.734375,0 1.265625,0.328125 z m 0,0"
                 id="path140" />
            </g>
          </g>
          <g
             clip-path="url(#clipPath1238)"
             clip-rule="nonzero"
             id="g75">
            <g
               style="fill:#000000;fill-opacity:1"
               id="g73">
              <g
                 id="use71"
                 transform="translate(37.557999,15.454)">
                <path
                   style="stroke:none"
                   d="m 8.609375,-3.203125 h -0.375 c -0.203125,1.46875 -0.359375,1.71875 -0.453125,1.84375 -0.09375,0.15625 -1.578125,0.15625 -1.875,0.15625 H 1.9375 C 2.6875,-2 4.125,-3.46875 5.890625,-5.171875 c 1.25,-1.1875 2.71875,-2.59375 2.71875,-4.640625 0,-2.4375 -1.9375,-3.84375 -4.109375,-3.84375 -2.265625,0 -3.65625,2 -3.65625,3.859375 0,0.8125 0.609375,0.921875 0.84375,0.921875 0.21875,0 0.828125,-0.125 0.828125,-0.859375 0,-0.640625 -0.53125,-0.828125 -0.828125,-0.828125 -0.125,0 -0.234375,0.03125 -0.328125,0.0625 0.390625,-1.75 1.59375,-2.609375 2.859375,-2.609375 1.796875,0 2.96875,1.421875 2.96875,3.296875 0,1.796875 -1.046875,3.34375 -2.234375,4.6875 L 0.84375,-0.46875 V 0 H 8.125 Z m 0,0"
                   id="path144" />
              </g>
            </g>
          </g>
        </g>
        <g
           id="g12958"
           transform="matrix(0.1058334,0,0,0.1058334,37.192583,76.162145)">
          <g
             style="fill:#000000;fill-opacity:1"
             id="g79">
            <g
               id="use77"
               transform="translate(47.533001,10.672)">
              <path
                 style="stroke:none"
                 d="m 11.75,-10.109375 c -0.796875,0.140625 -1.09375,0.734375 -1.09375,1.21875 0,0.59375 0.46875,0.78125 0.8125,0.78125 0.75,0 1.265625,-0.640625 1.265625,-1.3125 0,-1.03125 -1.1875,-1.5 -2.234375,-1.5 -1.5,0 -2.34375,1.484375 -2.5625,1.953125 -0.578125,-1.859375 -2.109375,-1.953125 -2.5625,-1.953125 -2.53125,0 -3.859375,3.234375 -3.859375,3.78125 0,0.109375 0.09375,0.234375 0.265625,0.234375 0.203125,0 0.25,-0.15625 0.296875,-0.25 0.84375,-2.75 2.5,-3.28125 3.21875,-3.28125 1.125,0 1.34375,1.046875 1.34375,1.640625 C 6.640625,-8.25 6.5,-7.6875 6.1875,-6.5 l -0.828125,3.40625 c -0.375,1.484375 -1.09375,2.84375 -2.40625,2.84375 -0.125,0 -0.75,0 -1.265625,-0.3125 0.890625,-0.1875 1.09375,-0.921875 1.09375,-1.21875 0,-0.5 -0.375,-0.796875 -0.84375,-0.796875 -0.59375,0 -1.25,0.515625 -1.25,1.3125 0,1.046875 1.171875,1.515625 2.234375,1.515625 1.1875,0 2.03125,-0.9375 2.5625,-1.953125 C 5.875,-0.25 7.109375,0.25 8.03125,0.25 c 2.53125,0 3.859375,-3.25 3.859375,-3.796875 0,-0.125 -0.09375,-0.21875 -0.25,-0.21875 -0.21875,0 -0.234375,0.125 -0.3125,0.328125 -0.671875,2.171875 -2.109375,3.1875 -3.21875,3.1875 -0.875,0 -1.34375,-0.640625 -1.34375,-1.65625 0,-0.546875 0.09375,-0.9375 0.5,-2.578125 L 8.125,-7.859375 C 8.5,-9.34375 9.34375,-10.4375 10.484375,-10.4375 c 0.04687,0 0.734375,0 1.265625,0.328125 z m 0,0"
                 id="path148" />
            </g>
          </g>
          <g
             clip-path="url(#clipPath1663)"
             clip-rule="nonzero"
             id="g85">
            <g
               style="fill:#000000;fill-opacity:1"
               id="g83">
              <g
                 id="use81"
                 transform="translate(61.325001,15.454)">
                <path
                   style="stroke:none"
                   d="m 4.5625,-7.015625 c 1.84375,0 2.640625,1.578125 2.640625,3.421875 0,2.484375 -1.3125,3.421875 -2.515625,3.421875 -1.09375,0 -2.875,-0.53125 -3.421875,-2.125 C 1.359375,-2.25 1.46875,-2.25 1.5625,-2.25 c 0.5,0 0.875,-0.328125 0.875,-0.875 0,-0.59375 -0.453125,-0.859375 -0.875,-0.859375 -0.34375,0 -0.875,0.15625 -0.875,0.921875 0,1.90625 1.859375,3.390625 4.046875,3.390625 2.28125,0 4.046875,-1.796875 4.046875,-3.90625 0,-2 -1.65625,-3.4375 -3.609375,-3.671875 1.5625,-0.328125 3.0625,-1.734375 3.0625,-3.609375 0,-1.609375 -1.625,-2.796875 -3.484375,-2.796875 -1.875,0 -3.53125,1.15625 -3.53125,2.8125 0,0.71875 0.53125,0.84375 0.8125,0.84375 0.421875,0 0.796875,-0.265625 0.796875,-0.796875 0,-0.546875 -0.375,-0.8125 -0.796875,-0.8125 -0.09375,0 -0.1875,0 -0.28125,0.04687 0.609375,-1.375 2.234375,-1.609375 2.953125,-1.609375 0.734375,0 2.09375,0.34375 2.09375,2.328125 0,0.578125 -0.078125,1.609375 -0.78125,2.515625 C 5.390625,-7.515625 4.6875,-7.484375 4,-7.421875 3.90625,-7.421875 3.421875,-7.375 3.34375,-7.375 3.203125,-7.359375 3.125,-7.328125 3.125,-7.1875 c 0,0.140625 0.015625,0.171875 0.421875,0.171875 z m 0,0"
                   id="path152" />
              </g>
            </g>
          </g>
        </g>
        <g
           id="g12967"
           transform="matrix(0.1058334,0,0,0.1058334,34.66329,80.095163)">
          <g
             style="fill:#000000;fill-opacity:1"
             id="g89">
            <g
               id="use87"
               transform="translate(71.299004,10.672)">
              <path
                 style="stroke:none"
                 d="m 11.75,-10.109375 c -0.796875,0.140625 -1.09375,0.734375 -1.09375,1.21875 0,0.59375 0.46875,0.78125 0.8125,0.78125 0.75,0 1.265625,-0.640625 1.265625,-1.3125 0,-1.03125 -1.1875,-1.5 -2.234375,-1.5 -1.5,0 -2.34375,1.484375 -2.5625,1.953125 -0.578125,-1.859375 -2.109375,-1.953125 -2.5625,-1.953125 -2.53125,0 -3.859375,3.234375 -3.859375,3.78125 0,0.109375 0.09375,0.234375 0.265625,0.234375 0.203125,0 0.25,-0.15625 0.296875,-0.25 0.84375,-2.75 2.5,-3.28125 3.21875,-3.28125 1.125,0 1.34375,1.046875 1.34375,1.640625 C 6.640625,-8.25 6.5,-7.6875 6.1875,-6.5 l -0.828125,3.40625 c -0.375,1.484375 -1.09375,2.84375 -2.40625,2.84375 -0.125,0 -0.75,0 -1.265625,-0.3125 0.890625,-0.1875 1.09375,-0.921875 1.09375,-1.21875 0,-0.5 -0.375,-0.796875 -0.84375,-0.796875 -0.59375,0 -1.25,0.515625 -1.25,1.3125 0,1.046875 1.171875,1.515625 2.234375,1.515625 1.1875,0 2.03125,-0.9375 2.5625,-1.953125 C 5.875,-0.25 7.109375,0.25 8.03125,0.25 c 2.53125,0 3.859375,-3.25 3.859375,-3.796875 0,-0.125 -0.09375,-0.21875 -0.25,-0.21875 -0.21875,0 -0.234375,0.125 -0.3125,0.328125 -0.671875,2.171875 -2.109375,3.1875 -3.21875,3.1875 -0.875,0 -1.34375,-0.640625 -1.34375,-1.65625 0,-0.546875 0.09375,-0.9375 0.5,-2.578125 L 8.125,-7.859375 C 8.5,-9.34375 9.34375,-10.4375 10.484375,-10.4375 c 0.04687,0 0.734375,0 1.265625,0.328125 z m 0,0"
                 id="path156" />
            </g>
          </g>
          <g
             clip-path="url(#clipPath9777)"
             clip-rule="nonzero"
             id="g95">
            <g
               style="fill:#000000;fill-opacity:1"
               id="g93">
              <g
                 id="use91"
                 transform="translate(85.091003,15.454)">
                <path
                   style="stroke:none"
                   d="m 6.9375,-13.359375 c 0,-0.4375 -0.015625,-0.453125 -0.390625,-0.453125 L 0.40625,-4.046875 v 0.53125 H 5.75 v 2.03125 C 5.75,-0.75 5.703125,-0.53125 4.25,-0.53125 H 3.859375 V 0 c 0.671875,-0.046875 1.78125,-0.046875 2.484375,-0.046875 0.703125,0 1.8125,0 2.46875,0.046875 V -0.53125 H 8.421875 C 6.984375,-0.53125 6.9375,-0.75 6.9375,-1.484375 v -2.03125 h 2.109375 v -0.53125 H 6.9375 Z M 5.796875,-12 v 7.953125 h -4.96875 z m 0,0"
                   id="path160" />
              </g>
            </g>
          </g>
        </g>
        <g
           id="g12976"
           transform="matrix(0.1058334,0,0,0.1058334,32.171205,84.02818)">
          <g
             style="fill:#000000;fill-opacity:1"
             id="g99">
            <g
               id="use97"
               transform="translate(95.065002,10.672)">
              <path
                 style="stroke:none"
                 d="m 11.75,-10.109375 c -0.796875,0.140625 -1.09375,0.734375 -1.09375,1.21875 0,0.59375 0.46875,0.78125 0.8125,0.78125 0.75,0 1.265625,-0.640625 1.265625,-1.3125 0,-1.03125 -1.1875,-1.5 -2.234375,-1.5 -1.5,0 -2.34375,1.484375 -2.5625,1.953125 -0.578125,-1.859375 -2.109375,-1.953125 -2.5625,-1.953125 -2.53125,0 -3.859375,3.234375 -3.859375,3.78125 0,0.109375 0.09375,0.234375 0.265625,0.234375 0.203125,0 0.25,-0.15625 0.296875,-0.25 0.84375,-2.75 2.5,-3.28125 3.21875,-3.28125 1.125,0 1.34375,1.046875 1.34375,1.640625 C 6.640625,-8.25 6.5,-7.6875 6.1875,-6.5 l -0.828125,3.40625 c -0.375,1.484375 -1.09375,2.84375 -2.40625,2.84375 -0.125,0 -0.75,0 -1.265625,-0.3125 0.890625,-0.1875 1.09375,-0.921875 1.09375,-1.21875 0,-0.5 -0.375,-0.796875 -0.84375,-0.796875 -0.59375,0 -1.25,0.515625 -1.25,1.3125 0,1.046875 1.171875,1.515625 2.234375,1.515625 1.1875,0 2.03125,-0.9375 2.5625,-1.953125 C 5.875,-0.25 7.109375,0.25 8.03125,0.25 c 2.53125,0 3.859375,-3.25 3.859375,-3.796875 0,-0.125 -0.09375,-0.21875 -0.25,-0.21875 -0.21875,0 -0.234375,0.125 -0.3125,0.328125 -0.671875,2.171875 -2.109375,3.1875 -3.21875,3.1875 -0.875,0 -1.34375,-0.640625 -1.34375,-1.65625 0,-0.546875 0.09375,-0.9375 0.5,-2.578125 L 8.125,-7.859375 C 8.5,-9.34375 9.34375,-10.4375 10.484375,-10.4375 c 0.04687,0 0.734375,0 1.265625,0.328125 z m 0,0"
                 id="path164" />
            </g>
          </g>
          <g
             clip-path="url(#clipPath6246)"
             clip-rule="nonzero"
             id="g105">
            <g
               style="fill:#000000;fill-opacity:1"
               id="g103">
              <g
                 id="use101"
                 transform="translate(108.857,15.454)">
                <path
                   style="stroke:none"
                   d="m 2.359375,-12.078125 c 0.203125,0.07813 1.046875,0.34375 1.921875,0.34375 1.921875,0 2.96875,-1.03125 3.5625,-1.625 0,-0.171875 0,-0.28125 -0.125,-0.28125 -0.015625,0 -0.0625,0 -0.21875,0.09375 C 6.78125,-13.234375 5.921875,-13 4.890625,-13 c -0.609375,0 -1.546875,-0.07813 -2.5625,-0.53125 -0.21875,-0.109375 -0.265625,-0.109375 -0.28125,-0.109375 -0.109375,0 -0.125,0.03125 -0.125,0.4375 v 6 c 0,0.359375 0,0.46875 0.203125,0.46875 0.109375,0 0.140625,-0.046875 0.25,-0.1875 0.65625,-0.921875 1.578125,-1.3125 2.609375,-1.3125 0.71875,0 2.265625,0.453125 2.265625,3.984375 0,0.65625 0,1.859375 -0.625,2.796875 -0.515625,0.859375 -1.3125,1.28125 -2.203125,1.28125 -1.359375,0 -2.75,-0.9375 -3.125,-2.53125 0.09375,0.015625 0.25,0.0625 0.328125,0.0625 0.28125,0 0.796875,-0.140625 0.796875,-0.78125 0,-0.5625 -0.390625,-0.796875 -0.796875,-0.796875 -0.46875,0 -0.78125,0.296875 -0.78125,0.875 0,1.796875 1.421875,3.671875 3.625,3.671875 2.125,0 4.140625,-1.84375 4.140625,-4.5 C 8.609375,-6.65625 7,-8.578125 5,-8.578125 c -1.046875,0 -1.9375,0.390625 -2.640625,1.140625 z m 0,0"
                   id="path168" />
              </g>
            </g>
          </g>
        </g>
        <g
           id="g12985"
           transform="matrix(0.1058334,0,0,0.1058334,29.652556,87.961198)">
          <g
             style="fill:#000000;fill-opacity:1"
             id="g109">
            <g
               id="use107"
               transform="translate(118.832,10.672)">
              <path
                 style="stroke:none"
                 d="m 11.75,-10.109375 c -0.796875,0.140625 -1.09375,0.734375 -1.09375,1.21875 0,0.59375 0.46875,0.78125 0.8125,0.78125 0.75,0 1.265625,-0.640625 1.265625,-1.3125 0,-1.03125 -1.1875,-1.5 -2.234375,-1.5 -1.5,0 -2.34375,1.484375 -2.5625,1.953125 -0.578125,-1.859375 -2.109375,-1.953125 -2.5625,-1.953125 -2.53125,0 -3.859375,3.234375 -3.859375,3.78125 0,0.109375 0.09375,0.234375 0.265625,0.234375 0.203125,0 0.25,-0.15625 0.296875,-0.25 0.84375,-2.75 2.5,-3.28125 3.21875,-3.28125 1.125,0 1.34375,1.046875 1.34375,1.640625 C 6.640625,-8.25 6.5,-7.6875 6.1875,-6.5 l -0.828125,3.40625 c -0.375,1.484375 -1.09375,2.84375 -2.40625,2.84375 -0.125,0 -0.75,0 -1.265625,-0.3125 0.890625,-0.1875 1.09375,-0.921875 1.09375,-1.21875 0,-0.5 -0.375,-0.796875 -0.84375,-0.796875 -0.59375,0 -1.25,0.515625 -1.25,1.3125 0,1.046875 1.171875,1.515625 2.234375,1.515625 1.1875,0 2.03125,-0.9375 2.5625,-1.953125 C 5.875,-0.25 7.109375,0.25 8.03125,0.25 c 2.53125,0 3.859375,-3.25 3.859375,-3.796875 0,-0.125 -0.09375,-0.21875 -0.25,-0.21875 -0.21875,0 -0.234375,0.125 -0.3125,0.328125 -0.671875,2.171875 -2.109375,3.1875 -3.21875,3.1875 -0.875,0 -1.34375,-0.640625 -1.34375,-1.65625 0,-0.546875 0.09375,-0.9375 0.5,-2.578125 L 8.125,-7.859375 C 8.5,-9.34375 9.34375,-10.4375 10.484375,-10.4375 c 0.04687,0 0.734375,0 1.265625,0.328125 z m 0,0"
                 id="path172" />
            </g>
          </g>
          <g
             clip-path="url(#clipPath7780)"
             clip-rule="nonzero"
             id="g115">
            <g
               style="fill:#000000;fill-opacity:1"
               id="g113">
              <g
                 id="use111"
                 transform="translate(132.62399,15.454)">
                <path
                   style="stroke:none"
                   d="m 2.1875,-7.125 c 0,-4.9375 2.3125,-6.046875 3.65625,-6.046875 0.4375,0 1.484375,0.07813 1.90625,0.875 -0.328125,0 -0.953125,0 -0.953125,0.734375 0,0.546875 0.453125,0.734375 0.75,0.734375 0.171875,0 0.734375,-0.07813 0.734375,-0.78125 0,-1.296875 -1.03125,-2.046875 -2.453125,-2.046875 -2.46875,0 -5.046875,2.5625 -5.046875,7.125 0,5.625 2.34375,6.859375 3.984375,6.859375 2.015625,0 3.90625,-1.796875 3.90625,-4.5625 0,-2.578125 -1.671875,-4.46875 -3.78125,-4.46875 -1.25,0 -2.1875,0.828125 -2.703125,2.28125 z m 2.578125,6.953125 c -2.53125,0 -2.53125,-3.796875 -2.53125,-4.5625 0,-1.484375 0.703125,-3.625 2.625,-3.625 0.34375,0 1.359375,0 2.046875,1.421875 0.359375,0.796875 0.359375,1.65625 0.359375,2.6875 0,1.109375 0,1.9375 -0.421875,2.765625 -0.46875,0.84375 -1.125,1.3125 -2.078125,1.3125 z m 0,0"
                   id="path176" />
              </g>
            </g>
          </g>
        </g>
      </g>
      <path
         style="fill:none;stroke:#808080;stroke-width:0.264583px;stroke-linecap:butt;stroke-linejoin:miter;stroke-opacity:1;marker-end:url(#TriangleStart)"
         d="M 49.789033,76.486583 V 94.692401"
         id="path14041" />
      <path
         style="fill:none;stroke:#808080;stroke-width:0.264583px;stroke-linecap:butt;stroke-linejoin:miter;stroke-opacity:1;marker-end:url(#marker14073)"
         d="m 55.623595,71.506776 h 14.89142"
         id="path14069" />
    </g>
    <text
       xml:space="preserve"
       style="font-size:4.23333px;line-height:1.25;font-family:sans-serif;stroke-width:0.264583"
       x="72.329964"
       y="149.25203"
       id="text31210"><tspan
         sodipodi:role="line"
         id="tspan31208"
         style="text-align:center;text-anchor:middle;stroke-width:0.264583"
         x="72.329964"
         y="149.25203">5D tensor </tspan><tspan
         sodipodi:role="line"
         style="font-size:2.82222px;text-align:center;text-anchor:middle;stroke-width:0.264583"
         x="72.329964"
         y="154.54369"
         id="tspan31212">with shape  [samples, channels, time, height, width]</tspan></text>
    <text
       xml:space="preserve"
       style="font-size:4.23333px;line-height:1.25;font-family:sans-serif;stroke-width:0.264583"
       x="156.72408"
       y="149.2605"
       id="text31210-3"><tspan
         sodipodi:role="line"
         id="tspan31208-1"
         style="text-align:center;text-anchor:middle;stroke-width:0.264583"
         x="156.72408"
         y="149.2605">4 to 5D tensor </tspan><tspan
         sodipodi:role="line"
         style="font-size:2.82222px;text-align:center;text-anchor:middle;stroke-width:0.264583"
         x="156.72408"
         y="154.55215"
         id="tspan31212-7">or single label</tspan></text>
    <text
       xml:space="preserve"
       style="font-size:4.23333px;line-height:1.25;font-family:sans-serif;stroke-width:0.264583"
       x="72.329971"
       y="128.29916"
       id="text31210-4"><tspan
         sodipodi:role="line"
         id="tspan31208-7"
         style="text-align:center;text-anchor:middle;stroke-width:0.264583"
         x="72.329971"
         y="128.29916">4D tensor </tspan><tspan
         sodipodi:role="line"
         style="font-size:2.82222px;text-align:center;text-anchor:middle;stroke-width:0.264583"
         x="72.329971"
         y="133.59082"
         id="tspan31212-6">with shape  [samples, channels, height, width]</tspan></text>
    <text
       xml:space="preserve"
       style="font-size:4.23333px;line-height:1.25;font-family:sans-serif;stroke-width:0.264583"
       x="72.329971"
       y="104.74184"
       id="text31210-0"><tspan
         sodipodi:role="line"
         id="tspan31208-3"
         style="text-align:center;text-anchor:middle;stroke-width:0.264583"
         x="72.329971"
         y="104.74184">3D tensor </tspan><tspan
         sodipodi:role="line"
         style="font-size:2.82222px;text-align:center;text-anchor:middle;stroke-width:0.264583"
         x="72.329971"
         y="110.0335"
         id="tspan31212-0">with shape  [samples, time, features]</tspan></text>
    <text
       xml:space="preserve"
       style="font-size:4.23333px;line-height:1.25;font-family:sans-serif;stroke-width:0.264583"
       x="156.25488"
       y="104.74184"
       id="text31210-0-4"><tspan
         sodipodi:role="line"
         id="tspan31208-3-4"
         style="text-align:center;text-anchor:middle;stroke-width:0.264583"
         x="156.25488"
         y="104.74184">2D to 3D tensor </tspan><tspan
         sodipodi:role="line"
         style="font-size:2.82222px;text-align:center;text-anchor:middle;stroke-width:0.264583"
         x="156.25488"
         y="110.0335"
         id="tspan31212-0-4">or singe label for sequence classification</tspan></text>
    <text
       xml:space="preserve"
       style="font-size:4.23333px;line-height:1.25;font-family:sans-serif;stroke-width:0.264583"
       x="156.2944"
       y="123.10699"
       id="text31210-6"><tspan
         sodipodi:role="line"
         style="font-size:2.82222px;text-align:center;text-anchor:middle;stroke-width:0.264583"
         x="156.2944"
         y="123.10699"
         id="tspan31212-9" /><tspan
         sodipodi:role="line"
         style="font-style:normal;font-variant:normal;font-weight:normal;font-stretch:normal;font-size:4.23333px;font-family:sans-serif;-inkscape-font-specification:'sans-serif, Normal';font-variant-ligatures:normal;font-variant-caps:normal;font-variant-numeric:normal;font-variant-east-asian:normal;text-align:center;text-anchor:middle;stroke-width:0.264583"
         x="156.2944"
         y="128.39865"
         id="tspan31252">3D or 4D tensor for dense prediction</tspan><tspan
         sodipodi:role="line"
         style="font-style:normal;font-variant:normal;font-weight:normal;font-stretch:normal;font-size:2.82222px;font-family:sans-serif;-inkscape-font-specification:'sans-serif, Normal';font-variant-ligatures:normal;font-variant-caps:normal;font-variant-numeric:normal;font-variant-east-asian:normal;text-align:center;text-anchor:middle;stroke-width:0.264583"
         x="156.2944"
         y="133.69031"
         id="tspan32032">or single label for image classification</tspan></text>
  </g>
</svg>
