<?xml version="1.0" encoding="UTF-8" standalone="no"?>
<!-- Created with Inkscape (http://www.inkscape.org/) -->

<svg
   width="108.50757mm"
   height="45.143246mm"
   viewBox="0 0 108.50756 45.143246"
   version="1.1"
   id="svg5"
   sodipodi:docname="ml_ingredients_recap.svg"
   inkscape:version="1.2.2 (b0a8486541, 2022-12-01)"
   xml:space="preserve"
   xmlns:inkscape="http://www.inkscape.org/namespaces/inkscape"
   xmlns:sodipodi="http://sodipodi.sourceforge.net/DTD/sodipodi-0.dtd"
   xmlns="http://www.w3.org/2000/svg"
   xmlns:svg="http://www.w3.org/2000/svg"><sodipodi:namedview
     id="namedview7"
     pagecolor="#ffffff"
     bordercolor="#666666"
     borderopacity="1.0"
     inkscape:showpageshadow="2"
     inkscape:pageopacity="0.0"
     inkscape:pagecheckerboard="0"
     inkscape:deskcolor="#d1d1d1"
     inkscape:document-units="mm"
     showgrid="true"
     inkscape:zoom="1.4659542"
     inkscape:cx="250.34889"
     inkscape:cy="119.0351"
     inkscape:window-width="1900"
     inkscape:window-height="1100"
     inkscape:window-x="8"
     inkscape:window-y="68"
     inkscape:window-maximized="1"
     inkscape:current-layer="g725"
     showguides="true"><inkscape:grid
       type="xygrid"
       id="grid2105"
       originx="-76.956316"
       originy="-126.87764" /></sodipodi:namedview><defs
     id="defs2"><rect
       x="590.2713"
       y="580.24902"
       width="208.79774"
       height="122.27078"
       id="rect5173" /><clipPath
       id="clipPath8564"><path
         d="m 136,23 h 7 v 14.0625 h -7 z m 0,0"
         id="path1994" /></clipPath><clipPath
       id="clipPath3041"><path
         d="m 142,23 h 6 v 14.0625 h -6 z m 0,0"
         id="path934" /></clipPath><rect
       x="649.82507"
       y="107.09382"
       width="95.43425"
       height="77.529869"
       id="rect35606" /><clipPath
       id="clipPath9850"><path
         d="M 0,0 H 13 V 10.671875 H 0 Z m 0,0"
         id="path4737"
         inkscape:connector-curvature="0" /></clipPath><clipPath
       id="clipPath4560"><path
         d="M 53,0 H 91 V 24.742188 H 53 Z m 0,0"
         id="path9159"
         inkscape:connector-curvature="0" /></clipPath><clipPath
       id="clipPath2527"><path
         d="m 188,0 h 7 v 24.742188 h -7 z m 0,0"
         id="path5410"
         inkscape:connector-curvature="0" /></clipPath><clipPath
       id="clipPath4041"><path
         d="M 53,0 H 91 V 24.742188 H 53 Z m 0,0"
         id="path2072"
         inkscape:connector-curvature="0" /></clipPath><clipPath
       id="clipPath1798"><path
         d="m 196,0 h 6 v 24.742188 h -6 z m 0,0"
         id="path2131"
         inkscape:connector-curvature="0" /></clipPath><clipPath
       id="clipPath1720"><path
         d="M 53,0 H 91 V 24.742188 H 53 Z m 0,0"
         id="path8228"
         inkscape:connector-curvature="0" /></clipPath><clipPath
       id="clipPath1622"><path
         d="m 196,0 h 6 v 24.742188 h -6 z m 0,0"
         id="path5475"
         inkscape:connector-curvature="0" /></clipPath><clipPath
       id="clipPath1793"><path
         d="M 45,0 H 83 V 24.742188 H 45 Z m 0,0"
         id="path4467"
         inkscape:connector-curvature="0" /></clipPath><clipPath
       id="clipPath2465"><path
         d="m 24,8 h 7 v 13.71875 h -7 z m 0,0"
         id="path4477"
         inkscape:connector-curvature="0" /></clipPath><clipPath
       id="clipPath605"><path
         d="m 23,8 h 9 v 13.71875 h -9 z m 0,0"
         id="path8695"
         inkscape:connector-curvature="0" /></clipPath><clipPath
       id="clipPath3993"><path
         d="m 23,8 h 9 v 13.71875 h -9 z m 0,0"
         id="path8638"
         inkscape:connector-curvature="0" /></clipPath><clipPath
       id="clipPath1848"><path
         d="m 23,7 h 9 v 14.71875 h -9 z m 0,0"
         id="path2947"
         inkscape:connector-curvature="0" /></clipPath><clipPath
       id="clipPath5004"><path
         d="m 12,8 h 7 v 13.996094 h -7 z m 0,0"
         id="path2340"
         inkscape:connector-curvature="0" /></clipPath><clipPath
       id="clipPath2091"><path
         d="m 11,8 h 8 v 13.996094 h -8 z m 0,0"
         id="path4991"
         inkscape:connector-curvature="0" /></clipPath><clipPath
       id="clipPath1355"><path
         d="m 11,8 h 9 v 13.996094 h -9 z m 0,0"
         id="path283"
         inkscape:connector-curvature="0" /></clipPath><clipPath
       id="clipPath5752"><path
         d="M 10,8 H 20 V 21.996094 H 10 Z m 0,0"
         id="path693"
         inkscape:connector-curvature="0" /></clipPath><clipPath
       clipPathUnits="userSpaceOnUse"
       id="clipPath35764"><g
         id="g35768"><path
           d="m 187,0 h 7 v 24.742188 h -7 z m 0,0"
           id="path35766"
           inkscape:connector-curvature="0" /></g></clipPath></defs><g
     inkscape:label="Layer 1"
     inkscape:groupmode="layer"
     id="layer1"
     transform="translate(-76.956324,-126.87764)"><g
       inkscape:label=""
       transform="translate(75.61184,122.90242)"
       id="g727"><g
         id="g725"
         transform="matrix(0.352778,0,0,0.352778,0.99721827,3.9714735)"><g
           id="g1443"
           style="fill:#6699ff"><g
             style="fill:#6699ff;fill-opacity:1"
             id="g628"><g
               id="g611"
               transform="translate(0,27.282)"
               style="fill:#6699ff"><path
                 style="fill:#6699ff;stroke:none"
                 d="m 8.921875,-6.421875 c 0,-1.625 0,-2.5 -1.046875,-3.46875 -0.90625,-0.8125 -1.984375,-1.0625 -2.8125,-1.0625 -1.96875,0 -3.375,1.53125 -3.375,3.171875 0,0.921875 0.734375,0.96875 0.890625,0.96875 0.328125,0 0.890625,-0.203125 0.890625,-0.890625 0,-0.625 -0.46875,-0.890625 -0.890625,-0.890625 -0.09375,0 -0.21875,0.015625 -0.296875,0.046875 C 2.796875,-10.109375 4.140625,-10.5625 5,-10.5625 c 1.25,0 2.609375,1.09375 2.609375,3.171875 v 1.09375 C 6.140625,-6.25 4.390625,-6.046875 3,-5.296875 1.4375,-4.4375 0.984375,-3.203125 0.984375,-2.25 c 0,1.90625 2.234375,2.453125 3.546875,2.453125 1.359375,0 2.625,-0.765625 3.171875,-2.1875 0.046875,1.09375 0.75,2.078125 1.84375,2.078125 C 10.0625,0.09375 11.375,-0.25 11.375,-2.203125 V -3.59375 h -0.453125 v 1.40625 c 0,1.515625 -0.65625,1.71875 -0.984375,1.71875 -1.015625,0 -1.015625,-1.296875 -1.015625,-2.375 z m -1.3125,2.984375 c 0,2.15625 -1.53125,3.234375 -2.90625,3.234375 C 3.46875,-0.203125 2.5,-1.109375 2.5,-2.25 2.5,-3 2.828125,-4.3125 4.265625,-5.109375 5.453125,-5.78125 6.8125,-5.875 7.609375,-5.921875 Z m 0,0"
                 id="path181" /></g><g
               id="g614"
               transform="translate(11.367364,27.282)"
               style="fill:#6699ff"><path
                 style="fill:#6699ff;stroke:none"
                 d="m 3.71875,-5.84375 c 0,-2.390625 1.015625,-4.609375 2.875,-4.609375 0.171875,0 0.34375,0.01563 0.515625,0.09375 0,0 -0.546875,0.171875 -0.546875,0.8125 0,0.59375 0.46875,0.84375 0.84375,0.84375 0.296875,0 0.84375,-0.171875 0.84375,-0.859375 0,-0.796875 -0.796875,-1.296875 -1.640625,-1.296875 -1.875,0 -2.6875,1.84375 -2.9375,2.703125 h -0.03125 v -2.703125 l -2.875,0.28125 V -9.9375 c 1.46875,0 1.6875,0.15625 1.6875,1.34375 v 6.890625 c 0,0.9375 -0.09375,1.0625 -1.6875,1.0625 V 0 c 0.59375,-0.046875 1.734375,-0.046875 2.375,-0.046875 0.71875,0 1.984375,0 2.65625,0.046875 v -0.640625 c -1.78125,0 -2.078125,0 -2.078125,-1.125 z m 0,0"
                 id="path185" /></g><g
               id="g617"
               transform="translate(20.144476,27.282)"
               style="fill:#6699ff"><path
                 style="fill:#6699ff;stroke:none"
                 d="m 2.75,-4.453125 c 0.46875,0.359375 1.296875,0.78125 2.28125,0.78125 1.953125,0 3.640625,-1.53125 3.640625,-3.59375 0,-0.640625 -0.203125,-1.625 -0.9375,-2.40625 0.6875,-0.734375 1.703125,-0.984375 2.28125,-0.984375 0.09375,0 0.25,0 0.375,0.07813 -0.109375,0.01563 -0.328125,0.125 -0.328125,0.515625 0,0.328125 0.21875,0.546875 0.546875,0.546875 0.375,0 0.5625,-0.25 0.5625,-0.578125 0,-0.46875 -0.375,-0.953125 -1.15625,-0.953125 -1,0 -1.859375,0.46875 -2.5625,1.109375 -0.734375,-0.671875 -1.625,-0.921875 -2.421875,-0.921875 -1.953125,0 -3.640625,1.546875 -3.640625,3.59375 0,1.421875 0.8125,2.3125 1.0625,2.5625 -0.75,0.859375 -0.75,1.875 -0.75,2 0,0.640625 0.25,1.59375 1.09375,2.109375 C 1.515625,-0.265625 0.5,0.71875 0.5,1.953125 0.5,3.734375 2.84375,5.0625 5.671875,5.0625 c 2.734375,0 5.1875,-1.265625 5.1875,-3.125 0,-3.375 -3.671875,-3.375 -5.578125,-3.375 -0.578125,0 -1.59375,0 -1.71875,-0.03125 -0.765625,-0.125 -1.28125,-0.8125 -1.28125,-1.671875 0,-0.234375 0,-0.78125 0.46875,-1.3125 z m 2.28125,0.359375 c -2.1875,0 -2.1875,-2.671875 -2.1875,-3.171875 0,-0.484375 0,-3.171875 2.1875,-3.171875 2.1875,0 2.1875,2.6875 2.1875,3.171875 0,0.5 0,3.171875 -2.1875,3.171875 z m 0.640625,8.734375 c -2.46875,0 -4.1875,-1.3125 -4.1875,-2.6875 0,-0.765625 0.421875,-1.484375 0.96875,-1.875 0.625,-0.421875 0.875,-0.421875 2.546875,-0.421875 2.03125,0 4.859375,0 4.859375,2.296875 0,1.375 -1.703125,2.6875 -4.1875,2.6875 z m 0,0"
                 id="path189" /></g><g
               id="g620"
               transform="translate(31.511841,27.282)"
               style="fill:#6699ff"><path
                 style="fill:#6699ff;stroke:none"
                 d="m 16.75,-7.53125 c 0,-1.234375 -0.21875,-3.328125 -3.171875,-3.328125 -1.6875,0 -2.84375,1.140625 -3.296875,2.484375 H 10.26562 C 9.96875,-10.40625 8.5,-10.859375 7.109375,-10.859375 c -1.953125,0 -2.96875,1.515625 -3.34375,2.515625 h -0.03125 v -2.515625 L 0.8125,-10.578125 V -9.9375 c 1.46875,0 1.6875,0.15625 1.6875,1.34375 v 6.890625 c 0,0.9375 -0.09375,1.0625 -1.6875,1.0625 V 0 C 1.40625,-0.046875 2.5,-0.046875 3.140625,-0.046875 c 0.65625,0 1.765625,0 2.359375,0.046875 v -0.640625 c -1.578125,0 -1.6875,-0.109375 -1.6875,-1.0625 V -6.46875 c 0,-2.28125 1.390625,-3.984375 3.125,-3.984375 1.828125,0 2.03125,1.625 2.03125,2.828125 v 5.921875 c 0,0.9375 -0.09375,1.0625 -1.6875,1.0625 V 0 c 0.59375,-0.046875 1.6875,-0.046875 2.328125,-0.046875 0.65625,0 1.765625,0 2.359375,0.046875 v -0.640625 c -1.578125,0 -1.6875,-0.109375 -1.6875,-1.0625 V -6.46875 c 0,-2.28125 1.390625,-3.984375 3.125,-3.984375 1.828125,0 2.03125,1.625 2.03125,2.828125 v 5.921875 c 0,0.9375 -0.09375,1.0625 -1.6875,1.0625 V 0 c 0.59375,-0.046875 1.6875,-0.046875 2.328125,-0.046875 0.65625,0 1.765625,0 2.359375,0.046875 v -0.640625 c -1.59375,0 -1.6875,-0.109375 -1.6875,-1.0625 z m 0,0"
                 id="path193" /></g><g
               id="g623"
               transform="translate(50.64996,27.282)"
               style="fill:#6699ff"><path
                 style="fill:#6699ff;stroke:none"
                 d="m 3.84375,-15.265625 c 0,-0.546875 -0.453125,-1.015625 -1.015625,-1.015625 -0.546875,0 -1.015625,0.453125 -1.015625,1.015625 0,0.546875 0.4375,1.015625 1.015625,1.015625 0.546875,0 1.015625,-0.4375 1.015625,-1.015625 z m -2.90625,4.6875 V -9.9375 c 1.390625,0 1.59375,0.15625 1.59375,1.34375 v 6.890625 c 0,0.9375 -0.109375,1.0625 -1.6875,1.0625 V 0 C 1.4375,-0.046875 2.5,-0.046875 3.125,-0.046875 c 0.59375,0 1.609375,0 2.171875,0.046875 v -0.640625 c -1.453125,0 -1.5,-0.15625 -1.5,-1.046875 v -9.171875 z m 0,0"
                 id="path197" /></g><g
               id="g626"
               transform="translate(56.836819,27.282)"
               style="fill:#6699ff"><path
                 style="fill:#6699ff;stroke:none"
                 d="m 10.28125,-7.53125 c 0,-1.265625 -0.25,-3.328125 -3.171875,-3.328125 -1.953125,0 -2.96875,1.515625 -3.34375,2.515625 h -0.03125 v -2.515625 L 0.8125,-10.578125 V -9.9375 c 1.46875,0 1.6875,0.15625 1.6875,1.34375 v 6.890625 c 0,0.9375 -0.09375,1.0625 -1.6875,1.0625 V 0 C 1.40625,-0.046875 2.5,-0.046875 3.140625,-0.046875 c 0.65625,0 1.765625,0 2.359375,0.046875 v -0.640625 c -1.578125,0 -1.6875,-0.109375 -1.6875,-1.0625 V -6.46875 c 0,-2.28125 1.390625,-3.984375 3.125,-3.984375 1.828125,0 2.03125,1.625 2.03125,2.828125 v 5.921875 c 0,0.9375 -0.09375,1.0625 -1.6875,1.0625 V 0 c 0.59375,-0.046875 1.6875,-0.046875 2.328125,-0.046875 0.65625,0 1.765625,0 2.359375,0.046875 v -0.640625 c -1.578125,0 -1.6875,-0.109375 -1.6875,-1.0625 z m 0,0"
                 id="path201" /></g></g><g
             style="fill:#6699ff;fill-opacity:1"
             id="g633"><g
               id="g631"
               transform="translate(69.501999,33.137001)"
               style="fill:#6699ff"><path
                 style="fill:#6699ff;stroke:none"
                 d="m 9.15625,-10.390625 c 0,-2.109375 -0.671875,-4.15625 -2.359375,-4.15625 -2.890625,0 -5.96875,6.0625 -5.96875,10.59375 0,0.953125 0.203125,4.15625 2.375,4.15625 2.8125,0 5.953125,-5.90625 5.953125,-10.59375 z m -6.265625,2.90625 c 0.3125,-1.21875 0.75,-2.953125 1.578125,-4.40625 0.671875,-1.25 1.390625,-2.234375 2.3125,-2.234375 0.671875,0 1.125,0.578125 1.125,2.5625 0,0.734375 -0.0625,1.765625 -0.65625,4.078125 z m 4.21875,0.625 c -0.515625,2.03125 -0.953125,3.328125 -1.703125,4.625 -0.59375,1.0625 -1.3125,2.03125 -2.1875,2.03125 -0.640625,0 -1.15625,-0.5 -1.15625,-2.546875 0,-1.34375 0.328125,-2.75 0.671875,-4.109375 z m 0,0"
                 id="path205" /></g></g></g><g
           id="g2129"><g
             style="fill:#ff9900;fill-opacity:1"
             id="g692"><g
               id="g690"
               transform="translate(225.03754,27.282)"
               style="fill:#ff9900"><path
                 style="fill:#ff9900;stroke:none"
                 d="m 11.046875,-9.96875 c 0.5,0 0.703125,0 0.703125,-0.46875 0,-0.25 -0.203125,-0.25 -0.640625,-0.25 H 9.09375 c 0.46875,-2.546875 0.8125,-4.3125 1.015625,-5.09375 0.15625,-0.59375 0.671875,-1.171875 1.3125,-1.171875 0.515625,0 1.046875,0.21875 1.296875,0.453125 -0.96875,0.09375 -1.265625,0.8125 -1.265625,1.234375 0,0.5 0.375,0.796875 0.84375,0.796875 0.484375,0 1.234375,-0.421875 1.234375,-1.359375 0,-1.046875 -1.046875,-1.625 -2.125,-1.625 -1.078125,0 -2.109375,0.796875 -2.609375,1.765625 -0.453125,0.875 -0.6875,1.765625 -1.265625,5 H 5.875 c -0.46875,0 -0.71875,0 -0.71875,0.453125 0,0.265625 0.140625,0.265625 0.640625,0.265625 h 1.59375 C 6.9375,-7.65625 5.921875,-2.0625 5.359375,0.59375 4.9375,2.75 4.5625,4.5625 3.328125,4.5625 c -0.078125,0 -0.796875,0 -1.25,-0.46875 C 3.34375,3.984375 3.34375,2.90625 3.34375,2.875 3.34375,2.375 2.96875,2.078125 2.5,2.078125 2,2.078125 1.265625,2.5 1.265625,3.4375 c 0,1.078125 1.09375,1.625 2.0625,1.625 2.515625,0 3.5625,-4.546875 3.828125,-5.78125 0.453125,-1.90625 1.671875,-8.5 1.796875,-9.25 z m 0,0"
                 id="path249" /></g></g><g
             style="fill:#ff9900;fill-opacity:1"
             id="g697"><g
               id="g695"
               transform="translate(239.63901,27.282)"
               style="fill:#ff9900"><path
                 style="fill:#ff9900;stroke:none"
                 d="m 7.578125,6.046875 c 0,-0.03125 0,-0.078125 -0.0625,-0.15625 -1.140625,-1.15625 -4.1875,-4.328125 -4.1875,-12.0625 0,-7.734375 2.984375,-10.875 4.203125,-12.109375 0,-0.03125 0.046875,-0.07813 0.046875,-0.15625 0,-0.07813 -0.0625,-0.125 -0.171875,-0.125 -0.265625,0 -2.375,1.828125 -3.59375,4.5625 -1.234375,2.75 -1.578125,5.421875 -1.578125,7.8125 0,1.78125 0.171875,4.796875 1.65625,8 1.1875,2.578125 3.21875,4.375 3.515625,4.375 0.125,0 0.171875,-0.046875 0.171875,-0.140625 z m 0,0"
                 id="path253" /></g></g><g
             style="fill:#ff9900;fill-opacity:1"
             id="g702"><g
               id="g700"
               transform="translate(248.41701,27.282)"
               style="fill:#ff9900"><path
                 style="fill:#ff9900;stroke:none"
                 d="m 10.984375,-12.46875 c 0,-2.53125 -0.796875,-4.984375 -2.828125,-4.984375 -3.46875,0 -7.171875,7.265625 -7.171875,12.71875 0,1.140625 0.25,4.984375 2.859375,4.984375 3.375,0 7.140625,-7.09375 7.140625,-12.71875 z m -7.515625,3.5 c 0.375,-1.46875 0.890625,-3.546875 1.890625,-5.3125 0.8125,-1.484375 1.671875,-2.671875 2.765625,-2.671875 0.828125,0 1.359375,0.703125 1.359375,3.078125 0,0.890625 -0.0625,2.125 -0.78125,4.90625 z m 5.0625,0.734375 c -0.625,2.4375 -1.140625,4 -2.03125,5.5625 C 5.78125,-1.40625 4.90625,-0.25 3.859375,-0.25 c -0.765625,0 -1.375,-0.59375 -1.375,-3.046875 0,-1.609375 0.390625,-3.296875 0.78125,-4.9375 z m 0,0"
                 id="path257" /></g></g><g
             style="fill:#ff9900;fill-opacity:1"
             id="g707"><g
               id="g705"
               transform="translate(260.39661,27.282)"
               style="fill:#ff9900"><path
                 style="fill:#ff9900;stroke:none"
                 d="m 4.828125,0.09375 c 0,-1.4375 -0.46875,-2.5 -1.484375,-2.5 -0.796875,0 -1.1875,0.640625 -1.1875,1.1875 C 2.15625,-0.671875 2.53125,0 3.375,0 3.6875,0 3.96875,-0.09375 4.1875,-0.328125 4.234375,-0.375 4.265625,-0.375 4.28125,-0.375 c 0.0625,0 0.0625,0.34375 0.0625,0.46875 0,0.828125 -0.15625,2.4375 -1.59375,4.046875 C 2.484375,4.4375 2.484375,4.484375 2.484375,4.53125 c 0,0.125 0.125,0.25 0.234375,0.25 0.203125,0 2.109375,-1.828125 2.109375,-4.6875 z m 0,0"
                 id="path261" /></g></g><g
             style="fill:#ff9900;fill-opacity:1"
             id="g712"><g
               id="g710"
               transform="translate(271.27814,27.282)"
               style="fill:#ff9900"><path
                 style="fill:#ff9900;stroke:none"
                 d="m 11.75,-10.109375 c -0.796875,0.140625 -1.09375,0.734375 -1.09375,1.21875 0,0.59375 0.46875,0.78125 0.8125,0.78125 0.75,0 1.265625,-0.640625 1.265625,-1.3125 0,-1.03125 -1.1875,-1.5 -2.234375,-1.5 -1.5,0 -2.34375,1.484375 -2.5625,1.953125 -0.578125,-1.859375 -2.109375,-1.953125 -2.5625,-1.953125 -2.53125,0 -3.859375,3.234375 -3.859375,3.78125 0,0.109375 0.09375,0.234375 0.265625,0.234375 0.203125,0 0.25,-0.15625 0.296875,-0.25 0.84375,-2.75 2.5,-3.28125 3.21875,-3.28125 1.125,0 1.34375,1.046875 1.34375,1.640625 C 6.640625,-8.25 6.5,-7.6875 6.1875,-6.5 l -0.828125,3.40625 c -0.375,1.484375 -1.09375,2.84375 -2.40625,2.84375 -0.125,0 -0.75,0 -1.265625,-0.3125 0.890625,-0.1875 1.09375,-0.921875 1.09375,-1.21875 0,-0.5 -0.375,-0.796875 -0.84375,-0.796875 -0.59375,0 -1.25,0.515625 -1.25,1.3125 0,1.046875 1.171875,1.515625 2.234375,1.515625 1.1875,0 2.03125,-0.9375 2.5625,-1.953125 C 5.875,-0.25 7.109375,0.25 8.03125,0.25 c 2.53125,0 3.859375,-3.25 3.859375,-3.796875 0,-0.125 -0.09375,-0.21875 -0.25,-0.21875 -0.21875,0 -0.234375,0.125 -0.3125,0.328125 -0.671875,2.171875 -2.109375,3.1875 -3.21875,3.1875 -0.875,0 -1.34375,-0.640625 -1.34375,-1.65625 0,-0.546875 0.09375,-0.9375 0.5,-2.578125 L 8.125,-7.859375 C 8.5,-9.34375 9.34375,-10.4375 10.484375,-10.4375 c 0.04687,0 0.734375,0 1.265625,0.328125 z m 0,0"
                 id="path265" /></g></g><g
             style="fill:#ff9900;fill-opacity:1"
             id="g717"><g
               id="g715"
               transform="translate(285.06601,32.291)"
               style="fill:#ff9900"><path
                 style="fill:#ff9900;stroke:none"
                 d="m 5.84375,-2.953125 c 0,-0.109375 -0.078125,-0.1875 -0.203125,-0.1875 -0.1875,0 -0.203125,0.0625 -0.3125,0.40625 -0.53125,1.890625 -1.375,2.53125 -2.0625,2.53125 -0.25,0 -0.53125,-0.0625 -0.53125,-0.6875 0,-0.5625 0.234375,-1.171875 0.46875,-1.796875 l 1.4375,-3.84375 c 0.0625,-0.15625 0.21875,-0.53125 0.21875,-0.921875 0,-0.875 -0.625,-1.65625 -1.640625,-1.65625 -1.890625,0 -2.65625,3 -2.65625,3.15625 0,0.09375 0.078125,0.1875 0.21875,0.1875 0.1875,0 0.203125,-0.078125 0.296875,-0.375 0.484375,-1.734375 1.28125,-2.5625 2.078125,-2.5625 0.1875,0 0.546875,0.03125 0.546875,0.6875 0,0.53125 -0.28125,1.21875 -0.4375,1.671875 L 1.8125,-2.5 c -0.125,0.328125 -0.25,0.65625 -0.25,1.03125 0,0.9375 0.640625,1.671875 1.640625,1.671875 1.90625,0 2.640625,-3.015625 2.640625,-3.15625 z m -0.15625,-9.9375 c 0,-0.3125 -0.25,-0.6875 -0.703125,-0.6875 -0.484375,0 -1.015625,0.46875 -1.015625,1 0,0.515625 0.4375,0.6875 0.671875,0.6875 0.5625,0 1.046875,-0.546875 1.046875,-1 z m 0,0"
                 id="path269" /></g></g><g
             id="g720"
             transform="translate(292.466,27.282)"
             style="fill:#ff9900;fill-opacity:1"><path
               style="fill:#ff9900;fill-opacity:1;stroke:none"
               d="m 6.515625,-6.171875 c 0,-1.78125 -0.171875,-4.8125 -1.65625,-8 C 3.671875,-16.75 1.640625,-18.5625 1.34375,-18.5625 c -0.078125,0 -0.171875,0.03125 -0.171875,0.15625 0,0.04687 0.015625,0.0625 0.046875,0.125 1.1875,1.234375 4.203125,4.375 4.203125,12.09375 0,7.71875 -3,10.875 -4.203125,12.109375 C 1.1875,5.96875 1.171875,6 1.171875,6.046875 c 0,0.125 0.09375,0.140625 0.171875,0.140625 0.265625,0 2.375,-1.828125 3.59375,-4.546875 1.234375,-2.75 1.578125,-5.4375 1.578125,-7.8125 z m 0,0"
               id="path273" /></g></g><g
           id="g1544"
           style="fill:#99cc33;fill-opacity:1"><g
             id="g1476"
             transform="translate(-1.2401567e-6)"
             style="fill:#99cc33" /><g
             id="g1649"
             style="fill:#99cc33"><g
               id="g1579"
               style="fill:#99cc33;fill-opacity:1"
               transform="translate(-1.2401567e-6)"><path
                 style="fill:#99cc33;fill-opacity:1;fill-rule:nonzero;stroke:none"
                 d="M 86.695312,21.683594 H 105.05469 V 20.488281 H 86.695312 Z m 0,0"
                 id="path640" /><g
                 style="fill:#99cc33;fill-opacity:1"
                 id="g638"><g
                   id="g636"
                   transform="translate(91.136002,17.523001)"
                   style="fill:#99cc33"><path
                     style="fill:#99cc33;stroke:none"
                     d="m 5.5,-13.203125 c 0,-0.4375 -0.03125,-0.453125 -0.3125,-0.453125 C 4.375,-12.6875 3.15625,-12.375 2,-12.328125 c -0.0625,0 -0.15625,0 -0.1875,0.03125 -0.015625,0.04687 -0.015625,0.09375 -0.015625,0.515625 0.640625,0 1.71875,-0.109375 2.546875,-0.609375 v 10.875 c 0,0.734375 -0.046875,0.984375 -1.828125,0.984375 H 1.90625 V 0 C 2.890625,-0.015625 3.921875,-0.046875 4.921875,-0.046875 5.90625,-0.046875 6.9375,-0.015625 7.9375,0 V -0.53125 H 7.3125 C 5.53125,-0.53125 5.5,-0.765625 5.5,-1.515625 Z m 0,0"
                     id="path209" /></g></g><g
                 style="fill:#99cc33;fill-opacity:1"
                 id="g645"><g
                   id="g643"
                   transform="translate(86.694,36.998001)"
                   style="fill:#99cc33"><path
                     style="fill:#99cc33;stroke:none"
                     d="m 15.28125,-11.9375 c 0.234375,-0.890625 0.5625,-1.515625 2.125,-1.578125 0.0625,0 0.3125,-0.01563 0.3125,-0.359375 0,-0.234375 -0.1875,-0.234375 -0.265625,-0.234375 -0.40625,0 -1.46875,0.04687 -1.875,0.04687 h -1 c -0.28125,0 -0.65625,-0.04687 -0.9375,-0.04687 -0.125,0 -0.375,0 -0.375,0.390625 0,0.203125 0.15625,0.203125 0.3125,0.203125 1.234375,0.04687 1.3125,0.515625 1.3125,0.890625 0,0.1875 -0.01563,0.25 -0.07813,0.546875 l -2.34375,9.3125 L 8.0625,-13.75 c -0.15625,-0.34375 -0.171875,-0.359375 -0.625,-0.359375 H 4.921875 c -0.421875,0 -0.609375,0 -0.609375,0.390625 0,0.203125 0.15625,0.203125 0.546875,0.203125 0.09375,0 1.3125,0 1.3125,0.1875 0,0.04687 -0.03125,0.21875 -0.0625,0.265625 l -2.75,10.953125 C 3.125,-1.09375 2.625,-0.65625 1.265625,-0.59375 c -0.109375,0 -0.3125,0.015625 -0.3125,0.390625 C 0.953125,0 1.15625,0 1.21875,0 1.625,0 2.6875,-0.046875 3.09375,-0.046875 h 1 C 4.375,-0.046875 4.734375,0 5.015625,0 c 0.15625,0 0.375,0 0.375,-0.390625 0,-0.1875 -0.203125,-0.203125 -0.28125,-0.203125 C 4.421875,-0.625 3.765625,-0.75 3.765625,-1.484375 3.765625,-1.65625 3.796875,-1.84375 3.84375,-2 L 6.625,-13.0625 c 0.125,0.21875 0.125,0.25 0.21875,0.4375 L 11.75,-0.375 C 11.859375,-0.125 11.890625,0 12.078125,0 c 0.21875,0 0.234375,-0.0625 0.3125,-0.40625 z m 0,0"
                     id="path213" /></g></g><g
                 style="fill:#99cc33;fill-opacity:1"
                 id="g650"><g
                   id="g648"
                   transform="translate(110.38,6.1420002)"
                   style="fill:#99cc33"><path
                     style="fill:#99cc33;stroke:none"
                     d="M 12.578125,15.96875 1.96875,29.078125 C 1.734375,29.375 1.703125,29.4375 1.703125,29.5625 c 0,0.328125 0.265625,0.328125 0.8125,0.328125 h 24.78125 l 2.5625,-7.4375 h -0.75 c -0.75,2.234375 -2.75,4.0625 -5.28125,4.921875 -0.484375,0.15625 -2.546875,0.875 -6.9375,0.875 H 4.1875 l 10.375,-12.828125 c 0.203125,-0.265625 0.265625,-0.359375 0.265625,-0.484375 0,-0.109375 -0.03125,-0.140625 -0.21875,-0.40625 L 4.90625,1.203125 h 11.828125 c 3.40625,0 10.28125,0.203125 12.375,5.796875 h 0.75 l -2.5625,-7 H 2.515625 c -0.8125,0 -0.84375,0.03125 -0.84375,0.953125 z m 0,0"
                     id="path217" /></g></g><g
                 style="fill:#99cc33;fill-opacity:1"
                 id="g655"><g
                   id="g653"
                   transform="translate(141.92799,14.12)"
                   style="fill:#99cc33"><path
                     style="fill:#99cc33;stroke:none"
                     d="m 15.28125,-11.9375 c 0.234375,-0.890625 0.5625,-1.515625 2.125,-1.578125 0.0625,0 0.3125,-0.01563 0.3125,-0.359375 0,-0.234375 -0.1875,-0.234375 -0.265625,-0.234375 -0.40625,0 -1.46875,0.04687 -1.875,0.04687 h -1 c -0.28125,0 -0.65625,-0.04687 -0.9375,-0.04687 -0.125,0 -0.375,0 -0.375,0.390625 0,0.203125 0.15625,0.203125 0.3125,0.203125 1.234375,0.04687 1.3125,0.515625 1.3125,0.890625 0,0.1875 -0.01563,0.25 -0.07813,0.546875 l -2.34375,9.3125 L 8.0625,-13.75 c -0.15625,-0.34375 -0.171875,-0.359375 -0.625,-0.359375 H 4.921875 c -0.421875,0 -0.609375,0 -0.609375,0.390625 0,0.203125 0.15625,0.203125 0.546875,0.203125 0.09375,0 1.3125,0 1.3125,0.1875 0,0.04687 -0.03125,0.21875 -0.0625,0.265625 l -2.75,10.953125 C 3.125,-1.09375 2.625,-0.65625 1.265625,-0.59375 c -0.109375,0 -0.3125,0.015625 -0.3125,0.390625 C 0.953125,0 1.15625,0 1.21875,0 1.625,0 2.6875,-0.046875 3.09375,-0.046875 h 1 C 4.375,-0.046875 4.734375,0 5.015625,0 c 0.15625,0 0.375,0 0.375,-0.390625 0,-0.1875 -0.203125,-0.203125 -0.28125,-0.203125 C 4.421875,-0.625 3.765625,-0.75 3.765625,-1.484375 3.765625,-1.65625 3.796875,-1.84375 3.84375,-2 L 6.625,-13.0625 c 0.125,0.21875 0.125,0.25 0.21875,0.4375 L 11.75,-0.375 C 11.859375,-0.125 11.890625,0 12.078125,0 c 0.21875,0 0.234375,-0.0625 0.3125,-0.40625 z m 0,0"
                     id="path221" /></g></g><g
                 clip-path="url(#clipPath3041)"
                 clip-rule="nonzero"
                 id="g662"
                 style="fill:#99cc33"><g
                   style="fill:#99cc33;fill-opacity:1"
                   id="g660"><g
                     id="g658"
                     transform="translate(141.92799,37.063)"
                     style="fill:#99cc33"><path
                       style="fill:#99cc33;stroke:none"
                       d="m 5.84375,-2.953125 c 0,-0.109375 -0.078125,-0.1875 -0.203125,-0.1875 -0.1875,0 -0.203125,0.0625 -0.3125,0.40625 -0.53125,1.890625 -1.375,2.53125 -2.0625,2.53125 -0.25,0 -0.53125,-0.0625 -0.53125,-0.6875 0,-0.5625 0.234375,-1.171875 0.46875,-1.796875 l 1.4375,-3.84375 c 0.0625,-0.15625 0.21875,-0.53125 0.21875,-0.921875 0,-0.875 -0.625,-1.65625 -1.640625,-1.65625 -1.890625,0 -2.65625,3 -2.65625,3.15625 0,0.09375 0.078125,0.1875 0.21875,0.1875 0.1875,0 0.203125,-0.078125 0.296875,-0.375 0.484375,-1.734375 1.28125,-2.5625 2.078125,-2.5625 0.1875,0 0.546875,0.03125 0.546875,0.6875 0,0.53125 -0.28125,1.21875 -0.4375,1.671875 L 1.8125,-2.5 c -0.125,0.328125 -0.25,0.65625 -0.25,1.03125 0,0.9375 0.640625,1.671875 1.640625,1.671875 1.90625,0 2.640625,-3.015625 2.640625,-3.15625 z m -0.15625,-9.9375 c 0,-0.3125 -0.25,-0.6875 -0.703125,-0.6875 -0.484375,0 -1.015625,0.46875 -1.015625,1 0,0.515625 0.4375,0.6875 0.671875,0.6875 0.5625,0 1.046875,-0.546875 1.046875,-1 z m 0,0"
                       id="path225" /></g></g></g><g
                 style="fill:#99cc33;fill-opacity:1"
                 id="g667"><g
                   id="g665"
                   transform="translate(164.91701,27.282)"
                   style="fill:#99cc33"><path
                     style="fill:#99cc33;stroke:none"
                     d="m 4.453125,-2.296875 c 1.34375,-2.09375 1.765625,-3.671875 2.09375,-4.984375 0.859375,-3.421875 1.796875,-6.390625 3.34375,-8.109375 0.296875,-0.328125 0.5,-0.546875 1.28125,-0.546875 1.71875,0 1.765625,1.71875 1.765625,2.0625 0,0.4375 -0.125,0.796875 -0.125,0.921875 0,0.171875 0.140625,0.171875 0.171875,0.171875 0.390625,0 1.0625,-0.28125 1.6875,-0.71875 0.4375,-0.359375 0.671875,-0.59375 0.671875,-1.609375 0,-1.34375 -0.703125,-2.359375 -2.078125,-2.359375 -0.796875,0 -2.984375,0.203125 -5.40625,2.65625 -1.984375,2.03125 -3.15625,6.484375 -3.625,8.34375 -0.4375,1.703125 -0.640625,2.484375 -1.390625,3.96875 -0.171875,0.296875 -0.8125,1.390625 -1.15625,1.703125 -0.671875,0.625 -0.921875,1.0625 -0.921875,1.1875 0,0.0625 0.046875,0.15625 0.21875,0.15625 0.109375,0 0.625,-0.09375 1.265625,-0.515625 0.421875,-0.25 0.46875,-0.296875 1.046875,-0.90625 1.234375,0.03125 2.109375,0.25 3.671875,0.703125 1.265625,0.34375 2.515625,0.71875 3.78125,0.71875 2.015625,0 4.046875,-1.515625 4.84375,-2.609375 0.484375,-0.65625 0.640625,-1.28125 0.640625,-1.359375 0,-0.171875 -0.15625,-0.171875 -0.171875,-0.171875 -0.40625,0 -1,0.265625 -1.421875,0.578125 -0.65625,0.40625 -0.71875,0.5625 -0.859375,0.984375 -0.125,0.390625 -0.28125,0.59375 -0.375,0.75 -0.203125,0.296875 -0.21875,0.296875 -0.59375,0.296875 -1.1875,0 -2.421875,-0.375 -4.0625,-0.828125 C 8.046875,-2 6.6875,-2.40625 5.453125,-2.40625 c -0.328125,0 -0.671875,0.03125 -1,0.109375 z m 0,0"
                     id="path229" /></g></g><g
                 style="fill:#99cc33;fill-opacity:1"
                 id="g672"><g
                   id="g670"
                   transform="translate(186.145,27.282)"
                   style="fill:#99cc33"><path
                     style="fill:#99cc33;stroke:none"
                     d="m 7.578125,6.046875 c 0,-0.03125 0,-0.078125 -0.0625,-0.15625 -1.140625,-1.15625 -4.1875,-4.328125 -4.1875,-12.0625 0,-7.734375 2.984375,-10.875 4.203125,-12.109375 0,-0.03125 0.046875,-0.07813 0.046875,-0.15625 0,-0.07813 -0.0625,-0.125 -0.171875,-0.125 -0.265625,0 -2.375,1.828125 -3.59375,4.5625 -1.234375,2.75 -1.578125,5.421875 -1.578125,7.8125 0,1.78125 0.171875,4.796875 1.65625,8 1.1875,2.578125 3.21875,4.375 3.515625,4.375 0.125,0 0.171875,-0.046875 0.171875,-0.140625 z m 0,0"
                     id="path233" /></g></g><g
                 style="fill:#99cc33;fill-opacity:1"
                 id="g677"><g
                   id="g675"
                   transform="translate(194.922,27.282)"
                   style="fill:#99cc33;fill-opacity:1"><path
                     style="fill:#99cc33;fill-opacity:1;stroke:none"
                     d="M 6.515625,2.78125 C 5.84375,3.71875 4.875,4.5625 3.671875,4.5625 3.375,4.5625 2.1875,4.515625 1.8125,3.375 1.890625,3.390625 2,3.390625 2.0625,3.390625 2.796875,3.390625 3.296875,2.75 3.296875,2.1875 3.296875,1.609375 2.828125,1.40625 2.453125,1.40625 2.0625,1.40625 1.1875,1.703125 1.1875,2.921875 1.1875,4.1875 2.25,5.0625 3.671875,5.0625 c 2.46875,0 4.984375,-2.28125 5.671875,-5.03125 l 2.421875,-9.671875 c 0.03125,-0.125 0.07813,-0.265625 0.07813,-0.421875 0,-0.375 -0.296875,-0.625 -0.671875,-0.625 -0.21875,0 -0.734375,0.109375 -0.9375,0.84375 l -1.82813,7.296875 c -0.125,0.4375 -0.125,0.484375 -0.328125,0.765625 -0.5,0.6875 -1.3125,1.53125 -2.5,1.53125 C 4.1875,-0.25 4.0625,-1.609375 4.0625,-2.28125 c 0,-1.40625 0.671875,-3.3125 1.34375,-5.109375 0.265625,-0.71875 0.421875,-1.0625 0.421875,-1.5625 0,-1.03125 -0.75,-1.96875 -1.96875,-1.96875 -2.265625,0 -3.1875,3.59375 -3.1875,3.78125 0,0.109375 0.09375,0.234375 0.265625,0.234375 0.234375,0 0.25,-0.109375 0.34375,-0.453125 0.609375,-2.078125 1.546875,-3.078125 2.515625,-3.078125 0.21875,0 0.640625,0 0.640625,0.828125 0,0.640625 -0.28125,1.359375 -0.640625,2.296875 -1.21875,3.25 -1.21875,4.0625 -1.21875,4.65625 0,2.359375 1.6875,2.90625 2.921875,2.90625 0.71875,0 1.609375,-0.21875 2.484375,-1.140625 L 8,-0.875 C 7.625,0.59375 7.390625,1.5625 6.515625,2.78125 Z m 0,0"
                     id="path237" /></g></g><g
                 style="fill:#99cc33;fill-opacity:1"
                 id="g682"><g
                   id="g680"
                   transform="translate(206.756,32.291)"
                   style="fill:#99cc33;fill-opacity:1"><path
                     style="fill:#99cc33;fill-opacity:1;stroke:none"
                     d="m 5.84375,-2.953125 c 0,-0.109375 -0.078125,-0.1875 -0.203125,-0.1875 -0.1875,0 -0.203125,0.0625 -0.3125,0.40625 -0.53125,1.890625 -1.375,2.53125 -2.0625,2.53125 -0.25,0 -0.53125,-0.0625 -0.53125,-0.6875 0,-0.5625 0.234375,-1.171875 0.46875,-1.796875 l 1.4375,-3.84375 c 0.0625,-0.15625 0.21875,-0.53125 0.21875,-0.921875 0,-0.875 -0.625,-1.65625 -1.640625,-1.65625 -1.890625,0 -2.65625,3 -2.65625,3.15625 0,0.09375 0.078125,0.1875 0.21875,0.1875 0.1875,0 0.203125,-0.078125 0.296875,-0.375 0.484375,-1.734375 1.28125,-2.5625 2.078125,-2.5625 0.1875,0 0.546875,0.03125 0.546875,0.6875 0,0.53125 -0.28125,1.21875 -0.4375,1.671875 L 1.8125,-2.5 c -0.125,0.328125 -0.25,0.65625 -0.25,1.03125 0,0.9375 0.640625,1.671875 1.640625,1.671875 1.90625,0 2.640625,-3.015625 2.640625,-3.15625 z m -0.15625,-9.9375 c 0,-0.3125 -0.25,-0.6875 -0.703125,-0.6875 -0.484375,0 -1.015625,0.46875 -1.015625,1 0,0.515625 0.4375,0.6875 0.671875,0.6875 0.5625,0 1.046875,-0.546875 1.046875,-1 z m 0,0"
                     id="path241" /></g></g><g
                 style="fill:#99cc33;fill-opacity:1"
                 id="g687"><g
                   id="g685"
                   transform="translate(214.15601,27.282)"
                   style="fill:#99cc33;fill-opacity:1"><path
                     style="fill:#99cc33;fill-opacity:1;stroke:none"
                     d="m 4.828125,0.09375 c 0,-1.4375 -0.46875,-2.5 -1.484375,-2.5 -0.796875,0 -1.1875,0.640625 -1.1875,1.1875 C 2.15625,-0.671875 2.53125,0 3.375,0 3.6875,0 3.96875,-0.09375 4.1875,-0.328125 4.234375,-0.375 4.265625,-0.375 4.28125,-0.375 c 0.0625,0 0.0625,0.34375 0.0625,0.46875 0,0.828125 -0.15625,2.4375 -1.59375,4.046875 C 2.484375,4.4375 2.484375,4.484375 2.484375,4.53125 c 0,0.125 0.125,0.25 0.234375,0.25 0.203125,0 2.109375,-1.828125 2.109375,-4.6875 z m 0,0"
                     id="path245" /></g></g></g><g
               id="use172"
               transform="translate(301.2431,27.282)"
               style="fill:#99cc33;fill-opacity:1"><path
                 style="fill:#99cc33;fill-opacity:1;stroke:none"
                 d="m 6.515625,-6.171875 c 0,-1.78125 -0.171875,-4.8125 -1.65625,-8 C 3.671875,-16.75 1.640625,-18.5625 1.34375,-18.5625 c -0.078125,0 -0.171875,0.03125 -0.171875,0.15625 0,0.04687 0.015625,0.0625 0.046875,0.125 1.1875,1.234375 4.203125,4.375 4.203125,12.09375 0,7.71875 -3,10.875 -4.203125,12.109375 C 1.1875,5.96875 1.171875,6 1.171875,6.046875 c 0,0.125 0.09375,0.140625 0.171875,0.140625 0.265625,0 2.375,-1.828125 3.59375,-4.546875 1.234375,-2.75 1.578125,-5.4375 1.578125,-7.8125 z m 0,0"
                 id="path277" /></g></g></g><path
           style="fill:none;stroke:#ff9900;stroke-width:0.75px;stroke-linecap:butt;stroke-linejoin:miter;stroke-opacity:1"
           d="m 225.15149,40.887587 -0.0129,5.234267 75.00818,0.0093 -0.005,-5.244945"
           id="path1745"
           sodipodi:nodetypes="cccc" /><path
           style="fill:none;stroke:#99cc33;stroke-width:0.75px;stroke-linecap:butt;stroke-linejoin:miter;stroke-opacity:1"
           d="m 84.937084,40.887608 -0.0129,5.234267 136.251286,0.0093 -0.005,-5.244945"
           id="path1745-2"
           sodipodi:nodetypes="cccc" /><path
           style="fill:none;stroke:#6699ff;stroke-width:0.75px;stroke-linecap:butt;stroke-linejoin:miter;stroke-opacity:0.976471"
           d="m 2.3304058,40.887587 -0.0129,5.234267 75.0081802,0.0093 -0.005,-5.244945"
           id="path1745-2-9"
           sodipodi:nodetypes="cccc" /><text
           xml:space="preserve"
           style="font-size:12px;line-height:1.25;font-family:sans-serif;fill:#ff9900;fill-opacity:1;stroke-width:0.75"
           x="244.8764"
           y="67.81205"
           id="text1899"><tspan
             sodipodi:role="line"
             id="tspan1897"
             style="fill:#ff9900;fill-opacity:1;stroke-width:0.75"
             x="244.8764"
             y="67.81205">Model</tspan></text><text
           xml:space="preserve"
           style="font-size:12px;line-height:1.25;font-family:sans-serif;fill:#6699ff;fill-opacity:1;stroke-width:0.75"
           x="11.615332"
           y="67.81205"
           id="text1899-7"><tspan
             sodipodi:role="line"
             id="tspan1897-5"
             style="fill:#6699ff;fill-opacity:1;stroke-width:0.75"
             x="11.615332"
             y="67.81205">Optimizer</tspan><tspan
             sodipodi:role="line"
             style="fill:#6699ff;fill-opacity:1;stroke-width:0.75"
             x="11.615332"
             y="82.81205"
             id="tspan2353" /></text><text
           xml:space="preserve"
           style="font-size:12px;line-height:1.25;font-family:sans-serif;fill:#6699ff;fill-opacity:1;stroke-width:0.75"
           x="27.83931"
           y="95.398422"
           id="text1899-7-3"><tspan
             sodipodi:role="line"
             id="tspan1897-5-6"
             style="fill:#6699ff;fill-opacity:1;stroke-width:0.75"
             x="27.83931"
             y="95.398422">SGD</tspan><tspan
             sodipodi:role="line"
             style="fill:#6699ff;fill-opacity:1;stroke-width:0.75"
             x="27.83931"
             y="110.39842"
             id="tspan2353-75" /></text><text
           xml:space="preserve"
           style="font-size:12px;line-height:1.25;font-family:sans-serif;fill:#99cc33;fill-opacity:1;stroke-width:0.75"
           x="115.45955"
           y="67.81205"
           id="text1899-7-1"><tspan
             sodipodi:role="line"
             id="tspan1897-5-2"
             style="fill:#99cc33;fill-opacity:1;stroke-width:0.75"
             x="115.45955"
             y="67.81205">Loss function</tspan><tspan
             sodipodi:role="line"
             style="fill:#99cc33;fill-opacity:1;stroke-width:0.75"
             x="115.45955"
             y="82.81205"
             id="tspan2353-7" /></text><text
           xml:space="preserve"
           style="font-size:12px;line-height:1.25;font-family:sans-serif;fill:#99cc33;fill-opacity:1;stroke-width:0.75"
           x="140.75554"
           y="95.398422"
           id="text1899-7-1-3"><tspan
             sodipodi:role="line"
             id="tspan1897-5-2-5"
             style="fill:#99cc33;fill-opacity:1;stroke-width:0.75"
             x="140.75554"
             y="95.398422">MSE</tspan><tspan
             sodipodi:role="line"
             style="fill:#99cc33;fill-opacity:1;stroke-width:0.75"
             x="140.75554"
             y="110.39842"
             id="tspan2353-7-6" /></text><g
           id="g25371"
           transform="matrix(0.18,0,0,0.18,356.29855,238.32269)"><g
             id="g36243"><g
               id="g2664"><path
                 style="fill:none;stroke:#ffcc00;stroke-width:1.86234px;stroke-linecap:butt;stroke-linejoin:miter;stroke-opacity:1"
                 d="m -754.83103,-732.83995 116.53669,-94.39885"
                 id="path14021"
                 inkscape:connector-curvature="0" /><path
                 style="fill:none;stroke:#ffcc00;stroke-width:1.86234px;stroke-linecap:butt;stroke-linejoin:miter;stroke-opacity:1"
                 d="m -637.19704,-762.19622 -117.92685,28.95733 117.55775,32.58048"
                 id="path14023"
                 inkscape:connector-curvature="0" /><path
                 style="fill:none;stroke:#ffcc00;stroke-width:1.86234px;stroke-linecap:butt;stroke-linejoin:miter;stroke-opacity:1"
                 d="m -754.45247,-730.66125 115.6431,93.69935"
                 id="path14025"
                 inkscape:connector-curvature="0" /><path
                 style="fill:none;stroke:#ff9900;stroke-width:1.86234px;stroke-linecap:butt;stroke-linejoin:miter;stroke-opacity:1"
                 d="m -520.71184,-826.8984 -116.95464,-0.18139 115.71143,64.76351"
                 id="path14027"
                 inkscape:connector-curvature="0" /><path
                 style="fill:none;stroke:#ff9900;stroke-width:1.86234px;stroke-linecap:butt;stroke-linejoin:miter;stroke-opacity:1"
                 d="m -636.79004,-828.03401 115.74244,127.56199"
                 id="path14029"
                 inkscape:connector-curvature="0" /><path
                 style="fill:none;stroke:#ff9900;stroke-width:1.86234px;stroke-linecap:butt;stroke-linejoin:miter;stroke-opacity:1"
                 d="m -637.43713,-825.65968 116.36077,188.68212"
                 id="path14031"
                 inkscape:connector-curvature="0" /><path
                 style="fill:none;stroke:#ff9900;stroke-width:1.86234px;stroke-linecap:butt;stroke-linejoin:miter;stroke-opacity:1"
                 d="m -637.44842,-761.92114 115.69449,-63.55985"
                 id="path14033"
                 inkscape:connector-curvature="0" /><path
                 style="fill:none;stroke:#ff9900;stroke-width:1.86234px;stroke-linecap:butt;stroke-linejoin:miter;stroke-opacity:1"
                 d="m -521.66149,-762.26854 -118.24102,0.32921 119.12017,61.75394"
                 id="path14035"
                 inkscape:connector-curvature="0" /><path
                 style="fill:none;stroke:#ff9900;stroke-width:1.86234px;stroke-linecap:butt;stroke-linejoin:miter;stroke-opacity:1"
                 d="m -637.37971,-759.96095 117.62796,123.59333"
                 id="path14037"
                 inkscape:connector-curvature="0" /><path
                 style="fill:none;stroke:#ff9900;stroke-width:1.86234px;stroke-linecap:butt;stroke-linejoin:miter;stroke-opacity:1"
                 d="m -636.56421,-701.80916 113.62915,-125.92691"
                 id="path14039"
                 inkscape:connector-curvature="0" /><path
                 style="fill:none;stroke:#ff9900;stroke-width:1.86234px;stroke-linecap:butt;stroke-linejoin:miter;stroke-opacity:1"
                 d="m -633.44662,-700.08736 111.39378,-61.13784"
                 id="path14041"
                 inkscape:connector-curvature="0" /><path
                 style="fill:none;stroke:#ff9900;stroke-width:1.86234px;stroke-linecap:butt;stroke-linejoin:miter;stroke-opacity:1"
                 d="m -637.44855,-699.44472 115.93342,62.35987"
                 id="path14043"
                 inkscape:connector-curvature="0" /><path
                 style="fill:none;stroke:#ff9900;stroke-width:1.86234px;stroke-linecap:butt;stroke-linejoin:miter;stroke-opacity:1"
                 d="m -519.64787,-636.73378 -119.3216,-0.51271 119.46697,-62.57214"
                 id="path14045"
                 inkscape:connector-curvature="0" /><path
                 style="fill:none;stroke:#ff9900;stroke-width:1.86234px;stroke-linecap:butt;stroke-linejoin:miter;stroke-opacity:1"
                 d="m -521.39149,-760.43469 -116.15239,123.06601 116.46942,-190.17967"
                 id="path14047"
                 inkscape:connector-curvature="0" /><path
                 style="fill:#ff9900;stroke:#ff9900;stroke-width:1.86234px;stroke-linecap:butt;stroke-linejoin:miter;stroke-opacity:1"
                 d="m -636.68549,-700.92343 114.10949,0.0606"
                 id="path14049"
                 inkscape:connector-curvature="0" /><g
                 id="g14194"
                 style="stroke:#cc0000"
                 transform="matrix(7.038759,0,0,7.038759,-894.30615,-1209.5398)"><path
                   style="fill:none;stroke:#cc0000;stroke-width:0.264583px;stroke-linecap:butt;stroke-linejoin:miter;stroke-opacity:1"
                   d="M 86.352595,67.86181 69.796171,54.450518"
                   id="path14021-4"
                   inkscape:connector-curvature="0" /><path
                   style="fill:none;stroke:#cc0000;stroke-width:0.264583px;stroke-linecap:butt;stroke-linejoin:miter;stroke-opacity:1"
                   d="m 69.640276,63.691149 16.753927,4.113982 -16.701488,4.628726"
                   id="path14023-5"
                   inkscape:connector-curvature="0" /><path
                   style="fill:none;stroke:#cc0000;stroke-width:0.264583px;stroke-linecap:butt;stroke-linejoin:miter;stroke-opacity:1"
                   d="M 86.298813,68.171338 69.869342,81.483254"
                   id="path14025-0"
                   inkscape:connector-curvature="0" /></g><g
                 id="g14172"
                 style="stroke:#ff6600"
                 transform="matrix(7.038759,0,0,7.038759,-894.30615,-1209.5398)"><path
                   style="fill:none;stroke:#ff6600;stroke-width:0.264583px;stroke-linecap:butt;stroke-linejoin:miter;stroke-opacity:1"
                   d="m 69.687122,54.391504 -16.615804,-0.02577 16.439181,9.200985"
                   id="path14027-7"
                   inkscape:connector-curvature="0" /><path
                   style="fill:none;stroke:#ff6600;stroke-width:0.264583px;stroke-linecap:butt;stroke-linejoin:miter;stroke-opacity:1"
                   d="M 53.195834,54.230167 69.639421,72.352963"
                   id="path14029-3"
                   inkscape:connector-curvature="0" /><path
                   style="fill:none;stroke:#ff6600;stroke-width:0.264583px;stroke-linecap:butt;stroke-linejoin:miter;stroke-opacity:1"
                   d="M 53.103902,54.567489 69.635335,81.373654"
                   id="path14031-6"
                   inkscape:connector-curvature="0" /><path
                   style="fill:none;stroke:#ff6600;stroke-width:0.264583px;stroke-linecap:butt;stroke-linejoin:miter;stroke-opacity:1"
                   d="m 53.102298,63.622856 16.436774,-9.02998"
                   id="path14033-1"
                   inkscape:connector-curvature="0" /><path
                   style="fill:none;stroke:#ff6600;stroke-width:0.264583px;stroke-linecap:butt;stroke-linejoin:miter;stroke-opacity:1"
                   d="m 69.552206,63.573501 -16.798562,0.04677 16.923463,8.773414"
                   id="path14035-2"
                   inkscape:connector-curvature="0" /><path
                   style="fill:none;stroke:#ff6600;stroke-width:0.264583px;stroke-linecap:butt;stroke-linejoin:miter;stroke-opacity:1"
                   d="M 53.112059,63.901341 69.823523,81.460308"
                   id="path14037-9"
                   inkscape:connector-curvature="0" /><path
                   style="fill:none;stroke:#ff6600;stroke-width:0.264583px;stroke-linecap:butt;stroke-linejoin:miter;stroke-opacity:1"
                   d="m 53.227917,72.162995 16.143351,-17.8905"
                   id="path14039-3"
                   inkscape:connector-curvature="0" /><path
                   style="fill:none;stroke:#ff6600;stroke-width:0.264583px;stroke-linecap:butt;stroke-linejoin:miter;stroke-opacity:1"
                   d="M 53.670835,72.407613 69.496606,63.721728"
                   id="path14041-1"
                   inkscape:connector-curvature="0" /><path
                   style="fill:none;stroke:#ff6600;stroke-width:0.264583px;stroke-linecap:butt;stroke-linejoin:miter;stroke-opacity:1"
                   d="M 53.10228,72.498913 69.573,81.358409"
                   id="path14043-9"
                   inkscape:connector-curvature="0" /><path
                   style="fill:none;stroke:#ff6600;stroke-width:0.264583px;stroke-linecap:butt;stroke-linejoin:miter;stroke-opacity:1"
                   d="M 69.838281,81.408286 52.8862,81.335446 69.858934,72.44579"
                   id="path14045-4"
                   inkscape:connector-curvature="0" /><path
                   style="fill:none;stroke:#ff6600;stroke-width:0.264583px;stroke-linecap:butt;stroke-linejoin:miter;stroke-opacity:1"
                   d="M 69.590565,63.834036 53.088736,81.318086 69.635605,54.299165"
                   id="path14047-7"
                   inkscape:connector-curvature="0" /><path
                   style="fill:none;stroke:#ff6600;stroke-width:0.264583px;stroke-linecap:butt;stroke-linejoin:miter;stroke-opacity:1"
                   d="m 53.210688,72.288831 16.211592,0.0086"
                   id="path14049-8"
                   inkscape:connector-curvature="0" /></g><circle
                 style="fill:#6699ff;stroke:#ff9900;stroke-width:0;stroke-miterlimit:9.9;paint-order:stroke fill markers"
                 id="path13662"
                 cx="-752.88031"
                 cy="-730.53955"
                 r="22.555531" /><circle
                 style="fill:#003399;stroke:#ff9900;stroke-width:0;stroke-miterlimit:9.9;paint-order:stroke fill markers"
                 id="path13662-9"
                 cx="-287.74365"
                 cy="-730.53955"
                 r="22.555531" /><circle
                 style="fill:#487eea;fill-opacity:1;stroke:#ff9900;stroke-width:0;stroke-miterlimit:9.9;paint-order:stroke fill markers"
                 id="path13662-0"
                 cx="-636.59613"
                 cy="-825.48462"
                 r="22.555531" /><circle
                 style="fill:#487eea;fill-opacity:1;stroke:#ff9900;stroke-width:0;stroke-miterlimit:9.9;paint-order:stroke fill markers"
                 id="path13662-0-9"
                 cx="-636.59613"
                 cy="-762.18793"
                 r="22.555531" /><circle
                 style="fill:#487eea;fill-opacity:1;stroke:#ff9900;stroke-width:0;stroke-miterlimit:9.9;paint-order:stroke fill markers"
                 id="path13662-0-9-3"
                 cx="-636.59613"
                 cy="-698.8913"
                 r="22.555531" /><circle
                 style="fill:#487eea;fill-opacity:1;stroke:#ff9900;stroke-width:0;stroke-miterlimit:9.9;paint-order:stroke fill markers"
                 id="path13662-0-9-3-6"
                 cx="-636.59613"
                 cy="-635.59467"
                 r="22.555531" /><circle
                 style="fill:#3366cc;stroke:#ff9900;stroke-width:0;stroke-miterlimit:9.9;paint-order:stroke fill markers"
                 id="path13662-0-0"
                 cx="-520.31195"
                 cy="-825.48462"
                 r="22.555531" /><circle
                 style="fill:#3366cc;stroke:#ff9900;stroke-width:0;stroke-miterlimit:9.9;paint-order:stroke fill markers"
                 id="path13662-0-9-2"
                 cx="-520.31195"
                 cy="-762.18793"
                 r="22.555531" /><circle
                 style="fill:#3366cc;stroke:#ff9900;stroke-width:0;stroke-miterlimit:9.9;paint-order:stroke fill markers"
                 id="path13662-0-9-3-3"
                 cx="-520.31195"
                 cy="-698.8913"
                 r="22.555531" /><circle
                 style="fill:#3366cc;stroke:#ff9900;stroke-width:0;stroke-miterlimit:9.9;paint-order:stroke fill markers"
                 id="path13662-0-9-3-6-7"
                 cx="-520.31195"
                 cy="-635.59467"
                 r="22.555531" /><circle
                 style="fill:#144bb8;fill-opacity:1;stroke:#ff9900;stroke-width:0;stroke-miterlimit:9.9;paint-order:stroke fill markers"
                 id="path13662-0-0-9"
                 cx="-404.02786"
                 cy="-825.48462"
                 r="22.555531" /><circle
                 style="fill:#144bb8;fill-opacity:1;stroke:#ff9900;stroke-width:0;stroke-miterlimit:9.9;paint-order:stroke fill markers"
                 id="path13662-0-9-2-2"
                 cx="-404.02786"
                 cy="-762.18793"
                 r="22.555531" /><circle
                 style="fill:#144bb8;fill-opacity:1;stroke:#ff9900;stroke-width:0;stroke-miterlimit:9.9;paint-order:stroke fill markers"
                 id="path13662-0-9-3-3-2"
                 cx="-404.02786"
                 cy="-698.8913"
                 r="22.555531" /><circle
                 style="fill:#144bb8;fill-opacity:1;stroke:#ff9900;stroke-width:0;stroke-miterlimit:9.9;paint-order:stroke fill markers"
                 id="path13662-0-9-3-6-7-8"
                 cx="-404.02786"
                 cy="-635.59467"
                 r="22.555531" /></g></g></g></g></g></g></svg>
